<svg xmlns="http://www.w3.org/2000/svg" viewBox="0 0 720 280" width="720" height="280"><rect x="0" y="0" width="720" height="280" fill="#ffffff" /><text x="56" y="24" font-size="14" font-family="system-ui, -apple-system, Segoe UI, Roboto, sans-serif" fill="#1f2933" font-weight="600">Equity Curve (7d)</text><text x="14" y="144" text-anchor="middle" font-size="11" font-family="system-ui, -apple-system, Segoe UI, Roboto, sans-serif" fill="#1f2933" transform="rotate(-90 14 144)">Cumulative Net PnL</text><g><line x1="56" y1="40" x2="56" y2="248" stroke="#9aa5b1" stroke-width="1" /><g><line x1="56" y1="238.095" x2="704" y2="238.095" stroke="#e4e7eb" stroke-width="1" stroke-dasharray="2 2" /><line x1="52" y1="238.095" x2="56" y2="238.095" stroke="#9aa5b1" stroke-width="1" /><text x="48" y="242.095" text-anchor="end" font-size="11" font-family="system-ui, -apple-system, Segoe UI, Roboto, sans-serif" fill="#1f2933">-2.0</text></g><g><line x1="56" y1="188.571" x2="704" y2="188.571" stroke="#e4e7eb" stroke-width="1" stroke-dasharray="2 2" /><line x1="52" y1="188.571" x2="56" y2="188.571" stroke="#9aa5b1" stroke-width="1" /><text x="48" y="192.571" text-anchor="end" font-size="11" font-family="system-ui, -apple-system, Segoe UI, Roboto, sans-serif" fill="#1f2933">-1.5</text></g><g><line x1="56" y1="139.047" x2="704" y2="139.047" stroke="#e4e7eb" stroke-width="1" stroke-dasharray="2 2" /><line x1="52" y1="139.047" x2="56" y2="139.047" stroke="#9aa5b1" stroke-width="1" /><text x="48" y="143.047" text-anchor="end" font-size="11" font-family="system-ui, -apple-system, Segoe UI, Roboto, sans-serif" fill="#1f2933">-1.0</text></g><g><line x1="56" y1="89.524" x2="704" y2="89.524" stroke="#e4e7eb" stroke-width="1" stroke-dasharray="2 2" /><line x1="52" y1="89.524" x2="56" y2="89.524" stroke="#9aa5b1" stroke-width="1" /><text x="48" y="93.524" text-anchor="end" font-size="11" font-family="system-ui, -apple-system, Segoe UI, Roboto, sans-serif" fill="#1f2933">-0.5</text></g><g><line x1="56" y1="40" x2="704" y2="40" stroke="#e4e7eb" stroke-width="1" stroke-dasharray="2 2" /><line x1="52" y1="40" x2="56" y2="40" stroke="#9aa5b1" stroke-width="1" /><text x="48" y="44" text-anchor="end" font-size="11" font-family="system-ui, -apple-system, Segoe UI, Roboto, sans-serif" fill="#1f2933">0.0</text></g></g><g><line x1="56" y1="248" x2="704" y2="248" stroke="#9aa5b1" stroke-width="1" /><g><line x1="151.469" y1="248" x2="151.469" y2="252" stroke="#9aa5b1" stroke-width="1" /><text x="151.469" y="264" text-anchor="middle" font-size="11" font-family="system-ui, -apple-system, Segoe UI, Roboto, sans-serif" fill="#1f2933">22:00</text></g><g><line x1="355.335" y1="248" x2="355.335" y2="252" stroke="#9aa5b1" stroke-width="1" /><text x="355.335" y="264" text-anchor="middle" font-size="11" font-family="system-ui, -apple-system, Segoe UI, Roboto, sans-serif" fill="#1f2933">23:00</text></g><g><line x1="559.2" y1="248" x2="559.2" y2="252" stroke="#9aa5b1" stroke-width="1" /><text x="559.2" y="264" text-anchor="middle" font-size="11" font-family="system-ui, -apple-system, Segoe UI, Roboto, sans-serif" fill="#1f2933">00:00</text></g></g><g><polyline points="56,40 56.052,40 56.125,40 56.201,40 56.265,40 56.338,40 56.401,40 56.49,40 56.569,40 56.63,40 56.699,40 56.763,40 61.354,40 74.828,40 74.896,40 74.973,40 75.042,40 75.109,40 75.184,40 75.25,40 75.315,40 76.237,40 76.305,40 76.367,40 76.433,40 76.514,40 76.595,40 76.675,40 76.757,40 76.841,40 76.929,40 77.009,40 77.13,40 77.226,40 77.327,40 77.409,40 77.493,40 77.587,40 77.67,40 77.771,40 78.893,40 79.18,40 99.293,40 99.341,40 99.398,40 99.431,40 99.492,40 99.61,40 99.741,40 99.981,40 100.2,40 100.485,40 100.695,42.476 100.695,44.952 100.695,47.429 100.695,49.905 100.695,52.381 100.695,54.857 100.695,57.333 100.695,59.81 100.695,62.286 100.695,64.762 100.695,67.238 100.695,69.714 100.695,72.19 100.695,74.667 100.695,77.143 100.695,79.619 100.773,79.619 100.831,79.619 100.949,79.619 100.969,79.619 101.066,79.619 101.073,79.619 101.275,79.619 101.513,79.619 101.759,79.619 101.933,79.619 102.151,79.619 102.198,79.619 102.359,79.619 102.371,79.619 102.522,79.619 102.658,79.619 102.825,79.619 102.921,79.619 102.948,82.095 102.948,84.571 102.948,87.048 102.948,89.524 102.948,92 102.948,94.476 102.948,96.952 102.948,99.429 102.948,101.905 102.948,104.381 102.948,106.857 102.948,109.333 102.948,111.809 102.948,114.286 102.948,116.762 102.948,119.238 102.948,121.714 102.948,124.19 102.948,126.667 102.948,129.143 103.136,129.143 103.272,129.143 103.404,129.143 103.494,129.143 103.515,129.143 103.597,129.143 103.726,129.143 103.872,129.143 104.029,129.143 104.185,129.143 104.411,129.143 104.87,129.143 105.036,129.143 105.191,129.143 105.348,129.143 105.538,129.143 105.776,129.143 106.267,129.143 106.725,129.143 107.402,129.143 107.787,129.143 107.921,129.143 108.611,129.143 109.008,129.143 109.465,129.143 109.936,129.143 110.34,129.143 110.753,129.143 111.316,129.143 111.771,129.143 112.14,129.143 112.501,129.143 112.889,129.143 113.315,129.143 113.723,129.143 114.044,129.143 114.447,129.143 114.616,129.143 115.039,129.143 115.423,129.143 115.815,129.143 116.554,129.143 116.853,129.143 116.964,129.143 117.276,129.143 117.43,129.143 117.578,129.143 117.914,129.143 117.991,129.143 118.065,129.143 118.128,129.143 118.196,129.143 118.257,129.143 118.32,129.143 118.566,129.143 118.793,129.143 118.962,129.143 119.028,129.143 119.1,129.143 119.165,129.143 119.234,129.143 119.32,129.143 119.381,129.143 119.446,129.143 119.512,129.143 119.579,129.143 119.649,129.143 119.711,129.143 119.806,129.143 120.293,129.143 120.61,129.143 120.975,129.143 121.558,129.143 121.976,129.143 122.328,129.143 122.699,129.143 122.994,129.143 123.308,129.143 123.628,129.143 124.051,129.143 124.463,129.143 124.911,129.143 125.377,129.143 125.701,129.143 126.177,129.143 126.599,129.143 126.741,129.143 126.927,129.143 127.085,129.143 127.413,129.143 127.545,129.143 127.688,129.143 128.016,129.143 128.196,129.143 128.451,129.143 128.632,129.143 128.855,129.143 129.069,129.143 129.232,129.143 129.51,129.143 129.785,129.143 129.938,129.143 130.105,129.143 130.256,129.143 130.441,129.143 130.582,129.143 130.718,129.143 130.873,129.143 131.031,129.143 131.261,129.143 131.51,129.143 131.869,129.143 132.118,129.143 132.308,129.143 132.455,129.143 132.603,129.143 132.751,129.143 132.939,129.143 133.069,129.143 133.23,129.143 133.372,129.143 133.492,129.143 133.617,129.143 133.751,129.143 133.881,129.143 134.02,129.143 134.138,129.143 134.286,129.143 134.438,129.143 134.576,129.143 134.726,129.143 134.844,129.143 134.986,129.143 135.11,129.143 135.243,129.143 135.374,129.143 135.539,129.143 135.671,129.143 135.803,129.143 135.935,129.143 136.106,129.143 136.252,129.143 136.37,129.143 136.486,129.143 136.611,129.143 136.741,129.143 136.899,129.143 137.043,129.143 137.194,129.143 137.315,129.143 137.448,129.143 137.591,129.143 137.727,129.143 137.871,129.143 138.016,129.143 138.154,129.143 138.296,129.143 138.432,129.143 138.577,129.143 138.719,129.143 138.974,129.143 139.617,129.143 139.903,129.143 140.042,129.143 140.184,129.143 140.387,129.143 140.554,129.143 140.683,129.143 140.835,129.143 140.992,129.143 141.126,129.143 141.252,129.143 141.414,129.143 141.59,129.143 141.796,129.143 142.248,129.143 142.482,129.143 142.8,129.143 143.235,129.143 143.56,129.143 143.735,129.143 143.917,129.143 144.097,129.143 144.25,129.143 144.401,129.143 144.622,129.143 145.046,129.143 145.399,129.143 145.696,129.143 146.114,129.143 146.661,129.143 147.19,129.143 147.527,129.143 147.882,129.143 148.029,129.143 148.17,129.143 148.328,129.143 148.478,129.143 148.665,129.143 148.882,129.143 149.137,129.143 149.616,129.143 150.038,129.143 150.606,129.143 150.819,129.143 150.992,129.143 151.178,129.143 151.405,129.143 151.914,129.143 154.795,129.143 169.998,129.143 170.108,129.143 170.2,129.143 170.208,129.143 170.265,129.143 170.329,129.143 170.329,129.143 170.4,129.143 170.416,129.143 170.466,129.143 170.625,129.143 170.706,129.143 170.768,129.143 170.838,129.143 170.902,129.143 170.968,129.143 171.052,129.143 171.115,129.143 171.18,129.143 171.243,129.143 171.305,129.143 171.372,129.143 171.44,129.143 171.502,129.143 171.565,129.143 171.628,129.143 171.692,129.143 171.755,129.143 171.817,129.143 171.883,129.143 171.948,129.143 172.01,129.143 172.076,129.143 172.139,129.143 172.203,129.143 172.267,129.143 172.33,129.143 172.395,129.143 172.458,129.143 172.521,129.143 172.587,129.143 172.65,129.143 172.711,129.143 172.775,129.143 172.835,129.143 172.898,129.143 172.968,129.143 173.032,129.143 173.095,129.143 173.158,129.143 173.225,129.143 173.287,129.143 173.354,129.143 173.416,129.143 173.478,129.143 173.491,129.143 173.543,129.143 173.609,129.143 173.672,129.143 173.756,129.143 173.81,129.143 173.863,129.143 173.943,129.143 174.006,129.143 174.069,129.143 174.157,129.143 174.222,129.143 174.287,129.143 174.362,129.143 174.424,129.143 174.5,129.143 174.565,129.143 174.628,129.143 174.692,129.143 174.754,129.143 174.819,129.143 174.887,129.143 174.952,129.143 175.015,129.143 175.092,129.143 175.163,129.143 175.238,129.143 175.305,129.143 175.376,129.143 175.447,129.143 175.519,129.143 175.591,129.143 175.662,129.143 175.729,129.143 175.793,129.143 175.86,129.143 175.925,129.143 175.991,129.143 176.056,129.143 176.123,129.143 176.186,129.143 176.25,129.143 176.315,129.143 176.405,129.143 176.48,129.143 176.542,129.143 176.608,129.143 176.674,129.143 176.737,129.143 176.803,129.143 176.866,129.143 176.929,129.143 176.994,129.143 177.057,129.143 177.126,129.143 177.192,129.143 177.256,129.143 177.321,129.143 177.388,129.143 177.452,129.143 177.523,129.143 177.6,129.143 177.742,129.143 177.806,129.143 177.869,129.143 178.029,129.143 178.1,129.143 178.163,129.143 178.226,129.143 178.296,129.143 178.36,129.143 178.517,129.143 178.582,129.143 178.644,129.143 178.724,129.143 178.788,129.143 178.851,129.143 178.932,129.143 178.996,129.143 179.058,129.143 179.143,129.143 179.206,129.143 179.274,129.143 179.338,129.143 179.403,129.143 179.474,129.143 179.539,129.143 179.602,129.143 179.669,129.143 179.735,129.143 179.799,129.143 179.878,129.143 179.941,129.143 180.005,129.143 180.077,129.143 180.14,129.143 180.207,129.143 180.276,129.143 180.365,129.143 180.676,129.143 180.839,129.143 180.902,129.143 180.967,129.143 181.06,129.143 181.283,129.143 181.572,129.143 181.8,129.143 182.043,129.143 182.277,129.143 182.351,129.143 182.457,129.143 182.905,129.143 186.313,129.143 207.523,129.143 207.548,129.143 207.612,129.143 207.68,129.143 207.747,129.143 208.302,129.143 225.86,129.143 226.012,129.143 226.21,129.143 226.28,129.143 226.345,129.143 226.383,129.143 226.599,129.143 226.666,129.143 226.728,129.143 227.476,129.143 242.658,129.143 242.699,129.143 242.767,129.143 242.853,129.143 242.926,129.143 243.026,129.143 243.094,129.143 243.202,129.143 243.281,129.143 243.364,129.143 244.453,129.143 254.151,129.143 254.492,129.143 254.77,129.143 255.391,129.143 255.682,129.143 256.263,129.143 256.818,129.143 257.073,129.143 257.255,129.143 257.444,129.143 257.661,129.143 257.98,129.143 258.543,129.143 259.107,129.143 259.657,129.143 260.441,129.143 260.928,129.143 261.464,129.143 261.781,129.143 261.844,129.143 261.912,129.143 261.977,129.143 262.043,129.143 262.108,129.143 262.171,129.143 262.236,129.143 262.298,129.143 262.361,129.143 262.427,129.143 262.491,129.143 262.553,129.143 262.617,129.143 262.68,129.143 262.746,129.143 262.812,129.143 262.877,129.143 262.959,129.143 263.023,129.143 263.087,129.143 263.148,129.143 263.211,129.143 263.278,129.143 263.345,129.143 263.454,129.143 263.941,129.143 268.439,129.143 285.458,129.143 285.539,129.143 285.623,129.143 285.689,129.143 285.753,129.143 285.82,129.143 285.907,129.143 285.971,129.143 286.04,129.143 286.104,129.143 286.171,129.143 286.241,129.143 286.303,129.143 286.367,129.143 286.431,129.143 286.492,129.143 286.555,129.143 286.618,129.143 286.681,129.143 286.744,129.143 286.81,129.143 286.882,129.143 286.95,129.143 287.013,129.143 287.089,129.143 287.154,129.143 287.22,129.143 287.305,129.143 287.368,129.143 287.436,129.143 287.499,129.143 287.56,129.143 287.631,129.143 287.697,129.143 287.765,129.143 287.831,129.143 287.901,129.143 287.974,129.143 288.037,129.143 288.102,129.143 288.183,129.143 288.245,129.143 288.31,129.143 288.379,129.143 288.441,129.143 288.504,129.143 288.576,129.143 288.637,129.143 288.708,129.143 288.78,129.143 288.848,129.143 288.914,129.143 288.977,129.143 289.043,129.143 289.11,129.143 289.176,129.143 289.241,129.143 289.316,129.143 289.379,129.143 289.443,129.143 289.51,129.143 289.572,129.143 289.637,129.143 289.702,129.143 289.764,129.143 289.831,129.143 289.892,129.143 289.957,129.143 290.019,129.143 290.107,129.143 290.171,129.143 290.238,129.143 290.3,129.143 290.389,129.143 290.455,129.143 290.525,129.143 290.591,129.143 290.654,129.143 290.727,129.143 290.79,129.143 290.861,129.143 290.935,129.143 290.997,129.143 291.059,129.143 291.122,129.143 291.186,129.143 291.253,129.143 291.322,129.143 291.385,129.143 291.464,129.143 291.526,129.143 291.588,129.143 291.654,129.143 291.717,129.143 291.782,129.143 291.85,129.143 291.912,129.143 291.979,129.143 292.044,129.143 292.11,129.143 292.174,129.143 292.237,129.143 292.305,129.143 292.375,129.143 292.436,129.143 292.5,129.143 292.515,129.143 292.546,129.143 292.608,129.143 292.676,129.143 292.742,129.143 292.809,129.143 292.882,129.143 292.949,129.143 293.015,129.143 293.081,129.143 293.143,129.143 293.21,129.143 293.273,129.143 293.338,129.143 293.411,129.143 293.472,129.143 293.537,129.143 293.608,129.143 293.673,129.143 293.74,129.143 293.804,129.143 293.87,129.143 293.97,129.143 294.031,129.143 294.106,129.143 294.17,129.143 294.234,129.143 294.3,129.143 294.362,129.143 294.425,129.143 294.497,129.143 294.56,129.143 294.63,131.619 294.63,131.619 294.63,134.095 294.63,136.571 294.63,139.048 294.63,141.524 294.63,144 294.63,146.476 294.63,148.952 294.63,151.429 294.63,153.905 294.63,156.381 294.63,158.857 294.63,161.333 294.63,163.809 294.63,166.286 294.63,168.762 294.63,248 294.703,248 294.766,248 294.898,248 294.964,248 295.029,248 295.175,248 295.237,248 295.422,248 295.491,248 295.578,248 295.643,248 295.753,248 295.819,248 295.903,248 295.994,248 296.057,248 296.158,248 296.225,248 296.318,248 296.39,248 296.473,248 296.535,248 296.601,248 296.683,248 296.746,248 296.825,248 296.892,248 296.955,248 297.022,248 297.086,248 297.153,248 297.251,248 297.315,248 297.387,248 297.451,248 297.513,248 297.6,248 297.664,248 297.731,248 297.795,248 297.86,248 297.937,248 297.998,248 298.061,248 298.128,248 298.191,248 298.252,248 298.316,248 298.381,248 298.446,248 298.509,248 298.572,248 298.64,248 298.703,248 298.767,248 298.834,248 298.897,248 298.959,248 299.029,248 299.091,248 299.157,248 299.22,248 299.282,248 299.351,248 299.366,248 299.428,248 299.494,248 299.56,248 299.629,248 299.692,248 299.756,248 299.821,248 299.9,248 299.961,248 300.029,248 300.094,248 300.157,248 300.225,248 300.287,248 300.352,248 300.419,248 300.482,248 300.571,248 300.638,248 300.702,248 300.776,248 300.84,248 300.905,248 300.969,248 301.033,248 301.106,248 301.172,248 301.236,248 301.299,248 301.365,248 301.429,248 301.498,248 301.564,248 301.634,248 301.7,248 301.764,248 301.836,248 301.898,248 301.961,248 302.026,248 302.089,248 302.155,248 302.218,248 302.281,248 302.345,248 302.418,248 302.487,248 302.551,248 302.62,248 302.685,248 302.75,248 302.814,248 302.879,248 302.945,248 303.013,248 303.08,248 303.144,248 303.207,248 303.273,248 303.342,248 303.404,248 303.47,248 303.533,248 303.594,248 303.655,248 303.717,248 303.782,248 303.845,248 303.909,248 303.973,248 304.038,248 304.104,248 304.203,248 304.266,248 304.33,248 304.402,248 304.509,248 304.6,248 304.691,248 304.762,248 304.827,248 304.892,248 304.958,248 305.03,248 305.096,248 305.164,248 305.228,248 305.293,248 305.358,248 305.427,248 305.489,248 305.56,248 305.624,248 305.685,248 305.758,248 305.822,248 305.884,248 305.947,248 306.012,248 306.076,248 306.144,248 306.21,248 306.277,248 306.34,248 306.406,248 306.471,248 306.533,248 306.597,248 306.664,248 306.727,248 306.796,248 306.859,248 306.924,248 306.99,248 307.053,248 307.117,248 307.181,248 307.245,248 307.308,248 307.375,248 307.439,248 307.507,248 307.571,248 307.633,248 307.7,248 307.769,248 307.836,248 307.9,248 307.963,248 308.029,248 308.094,248 308.162,248 308.232,248 308.295,248 308.359,248 308.426,248 308.49,248 308.552,248 308.614,248 308.677,248 308.739,248 308.804,248 308.879,248 308.942,248 309.007,248 309.069,248 309.134,248 309.198,248 309.261,248 309.349,248 309.447,248 309.525,248 309.59,248 309.659,248 309.723,248 309.786,248 309.855,248 309.918,248 309.983,248 310.111,248 312.171,248 699.599,248 699.708,248 699.771,248 699.827,248 699.955,248 700.022,248 700.084,248 700.166,248 700.266,248 700.359,248 700.421,248 700.487,248 700.548,248 700.61,248 700.673,248 700.735,248 700.796,248 700.861,248 700.928,248 700.992,248 701.061,248 701.124,248 701.189,248 701.254,248 701.318,248 701.383,248 701.447,248 701.513,248 701.576,248 701.642,248 701.705,248 701.774,248 701.836,248 701.899,248 701.962,248 702.027,248 702.093,248 702.16,248 702.225,248 702.288,248 702.357,248 702.421,248 702.488,248 702.554,248 702.628,248 702.691,248 702.757,248 702.82,248 702.895,248 702.96,248 703.034,248 703.102,248 703.167,248 703.231,248 703.294,248 703.357,248 703.421,248 703.486,248 703.558,248 703.621,248 703.692,248 703.754,248 703.816,248 703.882,248 703.948,248 704,248" fill="none" stroke="#2563eb" stroke-width="1.5" stroke-linejoin="round" /></g></svg>