<svg xmlns="http://www.w3.org/2000/svg" viewBox="0 0 720 280" width="720" height="280"><rect x="0" y="0" width="720" height="280" fill="#ffffff" /><text x="56" y="24" font-size="14" font-family="system-ui, -apple-system, Segoe UI, Roboto, sans-serif" fill="#1f2933" font-weight="600">Markout 30s Distribution (7d)</text><g><line x1="56" y1="40" x2="56" y2="248" stroke="#9aa5b1" stroke-width="1" /><g><line x1="56" y1="248" x2="704" y2="248" stroke="#e4e7eb" stroke-width="1" stroke-dasharray="2 2" /><line x1="52" y1="248" x2="56" y2="248" stroke="#9aa5b1" stroke-width="1" /><text x="48" y="252" text-anchor="end" font-size="11" font-family="system-ui, -apple-system, Segoe UI, Roboto, sans-serif" fill="#1f2933">0</text></g><g><line x1="56" y1="168" x2="704" y2="168" stroke="#e4e7eb" stroke-width="1" stroke-dasharray="2 2" /><line x1="52" y1="168" x2="56" y2="168" stroke="#9aa5b1" stroke-width="1" /><text x="48" y="172" text-anchor="end" font-size="11" font-family="system-ui, -apple-system, Segoe UI, Roboto, sans-serif" fill="#1f2933">20</text></g><g><line x1="56" y1="88" x2="704" y2="88" stroke="#e4e7eb" stroke-width="1" stroke-dasharray="2 2" /><line x1="52" y1="88" x2="56" y2="88" stroke="#9aa5b1" stroke-width="1" /><text x="48" y="92" text-anchor="end" font-size="11" font-family="system-ui, -apple-system, Segoe UI, Roboto, sans-serif" fill="#1f2933">40</text></g></g><g><line x1="56" y1="248" x2="704" y2="248" stroke="#9aa5b1" stroke-width="1" /><g><line x1="163.883" y1="248" x2="163.883" y2="252" stroke="#9aa5b1" stroke-width="1" /><text x="163.883" y="264" text-anchor="middle" font-size="11" font-family="system-ui, -apple-system, Segoe UI, Roboto, sans-serif" fill="#1f2933">0.002 bps</text></g><g><line x1="314.454" y1="248" x2="314.454" y2="252" stroke="#9aa5b1" stroke-width="1" /><text x="314.454" y="264" text-anchor="middle" font-size="11" font-family="system-ui, -apple-system, Segoe UI, Roboto, sans-serif" fill="#1f2933">0.004 bps</text></g><g><line x1="465.025" y1="248" x2="465.025" y2="252" stroke="#9aa5b1" stroke-width="1" /><text x="465.025" y="264" text-anchor="middle" font-size="11" font-family="system-ui, -apple-system, Segoe UI, Roboto, sans-serif" fill="#1f2933">0.006 bps</text></g><g><line x1="615.596" y1="248" x2="615.596" y2="252" stroke="#9aa5b1" stroke-width="1" /><text x="615.596" y="264" text-anchor="middle" font-size="11" font-family="system-ui, -apple-system, Segoe UI, Roboto, sans-serif" fill="#1f2933">0.008 bps</text></g></g><g><rect x="56" y="40" width="20.6" height="208" fill="#2563eb" opacity="0.85" /><rect x="77.6" y="248" width="20.6" height="0" fill="#2563eb" opacity="0.85" /><rect x="99.2" y="248" width="20.6" height="0" fill="#2563eb" opacity="0.85" /><rect x="120.8" y="248" width="20.6" height="0" fill="#2563eb" opacity="0.85" /><rect x="142.4" y="248" width="20.6" height="0" fill="#2563eb" opacity="0.85" /><rect x="164" y="248" width="20.6" height="0" fill="#2563eb" opacity="0.85" /><rect x="185.6" y="248" width="20.6" height="0" fill="#2563eb" opacity="0.85" /><rect x="207.2" y="248" width="20.6" height="0" fill="#2563eb" opacity="0.85" /><rect x="228.8" y="248" width="20.6" height="0" fill="#2563eb" opacity="0.85" /><rect x="250.4" y="248" width="20.6" height="0" fill="#2563eb" opacity="0.85" /><rect x="272" y="248" width="20.6" height="0" fill="#2563eb" opacity="0.85" /><rect x="293.6" y="248" width="20.6" height="0" fill="#2563eb" opacity="0.85" /><rect x="315.2" y="248" width="20.6" height="0" fill="#2563eb" opacity="0.85" /><rect x="336.8" y="248" width="20.6" height="0" fill="#2563eb" opacity="0.85" /><rect x="358.4" y="248" width="20.6" height="0" fill="#2563eb" opacity="0.85" /><rect x="380" y="248" width="20.6" height="0" fill="#2563eb" opacity="0.85" /><rect x="401.6" y="248" width="20.6" height="0" fill="#2563eb" opacity="0.85" /><rect x="423.2" y="248" width="20.6" height="0" fill="#2563eb" opacity="0.85" /><rect x="444.8" y="248" width="20.6" height="0" fill="#2563eb" opacity="0.85" /><rect x="466.4" y="248" width="20.6" height="0" fill="#2563eb" opacity="0.85" /><rect x="488" y="248" width="20.6" height="0" fill="#2563eb" opacity="0.85" /><rect x="509.6" y="248" width="20.6" height="0" fill="#2563eb" opacity="0.85" /><rect x="531.2" y="248" width="20.6" height="0" fill="#2563eb" opacity="0.85" /><rect x="552.8" y="248" width="20.6" height="0" fill="#2563eb" opacity="0.85" /><rect x="574.4" y="248" width="20.6" height="0" fill="#2563eb" opacity="0.85" /><rect x="596" y="248" width="20.6" height="0" fill="#2563eb" opacity="0.85" /><rect x="617.6" y="248" width="20.6" height="0" fill="#2563eb" opacity="0.85" /><rect x="639.2" y="248" width="20.6" height="0" fill="#2563eb" opacity="0.85" /><rect x="660.8" y="248" width="20.6" height="0" fill="#2563eb" opacity="0.85" /><rect x="682.4" y="244" width="20.6" height="4" fill="#2563eb" opacity="0.85" /></g></svg>