<svg xmlns="http://www.w3.org/2000/svg" viewBox="0 0 720 280" width="720" height="280"><rect x="0" y="0" width="720" height="280" fill="#ffffff" /><text x="56" y="24" font-size="14" font-family="system-ui, -apple-system, Segoe UI, Roboto, sans-serif" fill="#1f2933" font-weight="600">Rolling Sharpe (7d)</text><text x="14" y="144" text-anchor="middle" font-size="11" font-family="system-ui, -apple-system, Segoe UI, Roboto, sans-serif" fill="#1f2933" transform="rotate(-90 14 144)">Sharpe</text><g><line x1="56" y1="40" x2="56" y2="248" stroke="#9aa5b1" stroke-width="1" /><g><line x1="56" y1="219.288" x2="704" y2="219.288" stroke="#e4e7eb" stroke-width="1" stroke-dasharray="2 2" /><line x1="52" y1="219.288" x2="56" y2="219.288" stroke="#9aa5b1" stroke-width="1" /><text x="48" y="223.288" text-anchor="end" font-size="11" font-family="system-ui, -apple-system, Segoe UI, Roboto, sans-serif" fill="#1f2933">-20</text></g><g><line x1="56" y1="174.466" x2="704" y2="174.466" stroke="#e4e7eb" stroke-width="1" stroke-dasharray="2 2" /><line x1="52" y1="174.466" x2="56" y2="174.466" stroke="#9aa5b1" stroke-width="1" /><text x="48" y="178.466" text-anchor="end" font-size="11" font-family="system-ui, -apple-system, Segoe UI, Roboto, sans-serif" fill="#1f2933">-15</text></g><g><line x1="56" y1="129.644" x2="704" y2="129.644" stroke="#e4e7eb" stroke-width="1" stroke-dasharray="2 2" /><line x1="52" y1="129.644" x2="56" y2="129.644" stroke="#9aa5b1" stroke-width="1" /><text x="48" y="133.644" text-anchor="end" font-size="11" font-family="system-ui, -apple-system, Segoe UI, Roboto, sans-serif" fill="#1f2933">-10</text></g><g><line x1="56" y1="84.822" x2="704" y2="84.822" stroke="#e4e7eb" stroke-width="1" stroke-dasharray="2 2" /><line x1="52" y1="84.822" x2="56" y2="84.822" stroke="#9aa5b1" stroke-width="1" /><text x="48" y="88.822" text-anchor="end" font-size="11" font-family="system-ui, -apple-system, Segoe UI, Roboto, sans-serif" fill="#1f2933">-5</text></g><g><line x1="56" y1="40" x2="704" y2="40" stroke="#e4e7eb" stroke-width="1" stroke-dasharray="2 2" /><line x1="52" y1="40" x2="56" y2="40" stroke="#9aa5b1" stroke-width="1" /><text x="48" y="44" text-anchor="end" font-size="11" font-family="system-ui, -apple-system, Segoe UI, Roboto, sans-serif" fill="#1f2933">0</text></g></g><g><line x1="56" y1="248" x2="704" y2="248" stroke="#9aa5b1" stroke-width="1" /><g><line x1="110.536" y1="248" x2="110.536" y2="252" stroke="#9aa5b1" stroke-width="1" /><text x="110.536" y="264" text-anchor="middle" font-size="11" font-family="system-ui, -apple-system, Segoe UI, Roboto, sans-serif" fill="#1f2933">22:00</text></g><g><line x1="220.02" y1="248" x2="220.02" y2="252" stroke="#9aa5b1" stroke-width="1" /><text x="220.02" y="264" text-anchor="middle" font-size="11" font-family="system-ui, -apple-system, Segoe UI, Roboto, sans-serif" fill="#1f2933">22:30</text></g><g><line x1="329.504" y1="248" x2="329.504" y2="252" stroke="#9aa5b1" stroke-width="1" /><text x="329.504" y="264" text-anchor="middle" font-size="11" font-family="system-ui, -apple-system, Segoe UI, Roboto, sans-serif" fill="#1f2933">23:00</text></g><g><line x1="438.989" y1="248" x2="438.989" y2="252" stroke="#9aa5b1" stroke-width="1" /><text x="438.989" y="264" text-anchor="middle" font-size="11" font-family="system-ui, -apple-system, Segoe UI, Roboto, sans-serif" fill="#1f2933">23:30</text></g><g><line x1="548.473" y1="248" x2="548.473" y2="252" stroke="#9aa5b1" stroke-width="1" /><text x="548.473" y="264" text-anchor="middle" font-size="11" font-family="system-ui, -apple-system, Segoe UI, Roboto, sans-serif" fill="#1f2933">00:00</text></g><g><line x1="657.957" y1="248" x2="657.957" y2="252" stroke="#9aa5b1" stroke-width="1" /><text x="657.957" y="264" text-anchor="middle" font-size="11" font-family="system-ui, -apple-system, Segoe UI, Roboto, sans-serif" fill="#1f2933">00:30</text></g></g><g><polyline points="56,106.613 56,111.343 56,115.951 56,120.467 56,124.916 56,129.318 56,133.692 56,138.052 56,142.412 56.084,142.412 56.147,142.412 56.273,142.412 56.295,142.412 56.399,142.412 56.407,142.412 56.623,142.412 56.879,142.412 57.144,142.412 57.331,142.412 57.565,142.412 57.615,142.412 57.787,142.412 57.801,142.412 57.963,142.412 58.109,142.412 58.288,142.412 58.391,142.412 58.421,146.784 58.421,151.181 58.421,155.612 58.421,160.089 58.421,164.622 58.421,169.222 58.421,173.9 58.421,178.667 58.421,183.534 58.421,188.513 58.421,193.618 58.421,198.863 58.421,204.262 58.421,209.831 58.421,215.59 58.421,221.557 58.421,227.756 58.421,234.21 58.421,240.947 58.421,248 58.623,248 58.769,248 58.91,248 59.007,248 59.03,248 59.118,248 59.256,240.947 59.413,234.21 59.581,227.756 59.749,221.557 59.991,215.59 60.485,209.831 60.663,204.262 60.83,198.863 60.999,193.618 61.202,188.513 61.458,183.534 61.985,178.667 62.477,173.9 63.204,169.222 63.618,164.622 63.762,160.089 64.503,160.089 64.929,160.089 65.42,160.089 65.926,160.089 66.36,160.089 66.804,160.089 67.408,160.089 67.897,160.089 68.293,160.089 68.682,160.089 69.098,160.089 69.555,160.089 69.994,160.089 70.339,160.089 70.771,160.089 70.952,160.089 71.407,160.089 71.819,160.089 72.24,155.612 73.034,151.181 73.356,146.784 73.474,142.412 73.81,138.052 73.975,133.692 74.134,129.318 74.495,124.916 74.578,120.467 74.657,115.951 74.725,111.343 74.798,106.613 74.864,101.72 74.931,96.61 75.195,91.206 75.439,85.389 75.621,78.962 75.691,71.537 75.769,62.11 75.839,40 75.913,40 76.005,40 76.071,40 76.141,40 76.212,40 76.283,40 76.359,40 76.426,40 76.527,40 77.05,40 77.391,40 77.783,40 78.409,40 78.858,40 79.236,40 79.634,40 79.952,40 80.289,40 80.633,40 81.087,40 81.529,40 82.011,40 82.511,40 82.859,40 83.37,40 83.824,40 83.976,40 84.175,40 84.345,40 84.698,40 84.84,40 84.994,40 85.345,40 85.539,40 85.812,40 86.007,40 86.247,40 86.477,40 86.651,40 86.95,40 87.246,40 87.41,40 87.589,40 87.751,40 87.95,40 88.102,40 88.247,40 88.415,40 88.584,40 88.831,40 89.099,40 89.484,40 89.752,40 89.955,40 90.113,40 90.273,40 90.431,40 90.634,40 90.772,40 90.946,40 91.098,40 91.227,40 91.361,40 91.506,40 91.645,40 91.794,40 91.921,40 92.08,40 92.243,40 92.392,40 92.552,40 92.68,40 92.832,40 92.965,40 93.108,40 93.249,40 93.426,40 93.568,40 93.709,40 93.851,40 94.035,40 94.191,40 94.318,40 94.443,40 94.577,40 94.716,40 94.887,40 95.041,40 95.203,40 95.334,40 95.476,40 95.63,40 95.776,40 95.93,40 96.087,40 96.235,40 96.387,40 96.533,40 96.689,40 96.841,40 97.115,40 97.806,40 98.113,40 98.263,40 98.415,40 98.633,40 98.812,40 98.951,40 99.114,40 99.283,40 99.427,40 99.562,40 99.736,40 99.925,40 100.146,40 100.632,40 100.883,40 101.225,40 101.692,40 102.041,40 102.229,40 102.425,40 102.617,40 102.782,40 102.945,40 103.182,40 103.637,40 104.016,40 104.335,40 104.784,40 105.371,40 105.94,40 106.302,40 106.683,40 106.842,40 106.993,40 107.162,40 107.324,40 107.524,40 107.757,40 108.031,40 108.546,40 108.999,40 109.609,40 109.838,40 110.024,40 110.223,40 110.468,40 111.014,40 114.109,40 130.437,40 130.556,40 130.655,40 130.663,40 130.724,40 130.793,40 130.794,40 130.87,40 130.886,40 130.94,40 131.111,40 131.198,40 131.265,40 131.34,40 131.408,40 131.48,40 131.57,40 131.638,40 131.708,40 131.774,40 131.842,40 131.914,40 131.986,40 132.053,40 132.12,40 132.188,40 132.257,40 132.325,40 132.391,40 132.463,40 132.533,40 132.598,40 132.669,40 132.737,40 132.806,40 132.875,40 132.943,40 133.012,40 133.08,40 133.148,40 133.219,40 133.286,40 133.351,40 133.42,40 133.485,40 133.553,40 133.627,40 133.697,40 133.764,40 133.832,40 133.903,40 133.97,40 134.042,40 134.109,40 134.175,40 134.189,40 134.245,40 134.316,40 134.384,40 134.474,40 134.533,40 134.589,40 134.675,40 134.743,40 134.81,40 134.905,40 134.974,40 135.044,40 135.125,40 135.192,40 135.273,40 135.343,40 135.411,40 135.48,40 135.546,40 135.615,40 135.689,40 135.759,40 135.826,40 135.909,40 135.985,40 136.066,40 136.138,40 136.214,40 136.291,40 136.367,40 136.445,40 136.521,40 136.594,40 136.662,40 136.734,40 136.804,40 136.875,40 136.945,40 137.016,40 137.084,40 137.153,40 137.223,40 137.319,40 137.4,40 137.466,40 137.537,40 137.608,40 137.676,40 137.747,40 137.814,40 137.882,40 137.952,40 138.019,40 138.094,40 138.165,40 138.233,40 138.304,40 138.375,40 138.444,40 138.52,40 138.603,40 138.755,40 138.824,40 138.891,40 139.063,40 139.14,40 139.207,40 139.275,40 139.35,40 139.419,40 139.588,40 139.657,40 139.724,40 139.81,40 139.879,40 139.946,40 140.034,40 140.102,40 140.168,40 140.26,40 140.328,40 140.401,40 140.469,40 140.54,40 140.615,40 140.685,40 140.754,40 140.826,40 140.896,40 140.965,40 141.049,40 141.118,40 141.186,40 141.264,40 141.331,40 141.403,40 141.478,40 141.573,40 141.907,40 142.081,40 142.15,40 142.22,40 142.319,40 142.559,40 142.869,40 143.114,40 143.375,40 143.627,40 143.706,40 143.819,40 144.301,40 147.961,40 170.742,40 170.769,40 170.838,40 170.911,40 170.984,40 171.579,40 190.438,40 190.601,40 190.814,40 190.889,40 190.959,40 191,40 191.232,40 191.304,40 191.371,40 192.174,40 208.48,40 208.524,40 208.597,40 208.689,40 208.768,40 208.876,40 208.949,40 209.064,40 209.149,40 209.239,40 210.408,40 220.825,40 221.191,40 221.489,40 222.156,40 222.469,40 223.093,40 223.689,40 223.963,40 224.159,40 224.362,40 224.595,40 224.937,40 225.542,40 226.148,40 226.739,40 227.58,40 228.105,40 228.68,40 229.021,40 229.088,40 229.161,40 229.23,40 229.302,40 229.372,40 229.439,40 229.509,40 229.576,40 229.643,40 229.714,40 229.782,40 229.849,40 229.918,40 229.986,40 230.057,40 230.128,40 230.198,40 230.285,40 230.354,40 230.423,40 230.489,40 230.556,40 230.628,40 230.7,40 230.817,40 231.34,40 236.171,40 254.451,40 254.538,40 254.629,40 254.7,40 254.768,40 254.84,40 254.933,40 255.002,40 255.077,40 255.145,40 255.218,40 255.292,40 255.359,40 255.428,40 255.496,40 255.561,40 255.629,40 255.698,40 255.765,40 255.832,40 255.903,40 255.98,40 256.054,40 256.122,40 256.203,40 256.273,40 256.344,40 256.435,40 256.502,40 256.576,40 256.643,40 256.709,40 256.786,40 256.856,40 256.929,40 257,40 257.075,40 257.153,40 257.221,40 257.291,40 257.378,40 257.444,40 257.514,40 257.588,40 257.656,40 257.723,40 257.8,40 257.866,40 257.942,40 258.019,40 258.093,40 258.163,40 258.231,40 258.302,40 258.374,40 258.444,40 258.515,40 258.595,40 258.662,40 258.731,40 258.803,40 258.87,40 258.94,40 259.01,40 259.076,40 259.148,40 259.214,40 259.283,40 259.35,40 259.444,40 259.513,40 259.586,40 259.652,40 259.748,40 259.818,40 259.894,40 259.965,40 260.032,40 260.11,40 260.179,40 260.255,40 260.334,40 260.401,40 260.467,40 260.535,40 260.604,40 260.675,40 260.749,40 260.817,40 260.902,40 260.969,40 261.036,40 261.107,40 261.174,40 261.244,40 261.317,40 261.383,40 261.456,40 261.525,40 261.596,40 261.664,40 261.732,40 261.805,40 261.88,40 261.946,40 262.015,40 262.031,40 262.065,40 262.131,40 262.204,40 262.275,40 262.347,40 262.426,40 262.498,40 262.568,40 262.639,40 262.706,40 262.777,40 262.846,40 262.915,40 262.993,40 263.058,40 263.129,40 263.205,40 263.274,40 263.347,40 263.415,40 263.486,40 263.594,40 263.659,40 263.74,40 263.808,40 263.877,40 263.948,40 264.015,40 264.082,40 264.16,40 264.228,40 264.302,62.11 264.302,62.11 264.302,71.537 264.302,78.962 264.302,85.389 264.302,91.206 264.302,96.61 264.302,101.72 264.302,106.613 264.302,111.343 264.302,115.951 264.302,120.467 264.302,124.916 264.302,129.318 264.302,133.692 264.302,138.052 264.302,142.412 264.302,73.253 264.381,73.253 264.449,73.253 264.59,73.253 264.662,73.253 264.731,73.253 264.888,73.253 264.955,73.253 265.153,73.253 265.228,73.253 265.32,73.253 265.391,73.253 265.509,73.253 265.58,73.253 265.67,73.253 265.767,73.253 265.836,73.253 265.944,73.253 266.016,73.253 266.116,73.253 266.193,73.253 266.282,73.253 266.349,73.253 266.419,73.253 266.507,73.253 266.576,73.253 266.66,73.253 266.733,73.253 266.8,73.253 266.872,73.253 266.94,73.253 267.013,73.253 267.118,73.253 267.187,73.253 267.264,73.253 267.332,73.253 267.399,73.253 267.493,73.253 267.561,73.253 267.633,73.253 267.702,73.253 267.772,73.253 267.854,73.253 267.921,72.551 267.988,72.551 268.06,71.85 268.127,71.149 268.193,70.45 268.262,69.751 268.331,69.053 268.401,68.356 268.469,67.66 268.537,66.964 268.61,66.269 268.677,65.574 268.746,64.881 268.818,64.187 268.886,63.494 268.953,62.802 269.028,62.11 269.094,40 269.165,40 269.233,40 269.3,40 269.373,40 269.39,40 269.456,40 269.527,40 269.598,40 269.672,40 269.74,40 269.809,40 269.878,40 269.963,40 270.029,40 270.102,40 270.171,40 270.239,40 270.312,40 270.379,40 270.449,40 270.521,40 270.589,40 270.684,40 270.756,40 270.824,40 270.905,40 270.972,40 271.043,40 271.111,40 271.18,40 271.258,40 271.329,40 271.398,40 271.465,40 271.537,40 271.606,40 271.679,40 271.75,40 271.825,40 271.896,40 271.965,40 272.042,40 272.11,40 272.176,40 272.247,40 272.315,40 272.385,40 272.453,40 272.521,40 272.589,40 272.667,40 272.742,40 272.811,40 272.885,40 272.955,40 273.024,40 273.093,40 273.163,40 273.233,40 273.307,40 273.379,40 273.447,40 273.515,40 273.586,40 273.66,40 273.727,40 273.798,40 273.865,40 273.931,40 273.997,40 274.063,40 274.133,40 274.2,40 274.269,40 274.338,40 274.408,40 274.479,40 274.585,40 274.653,40 274.721,40 274.799,40 274.914,40 275.011,40 275.109,40 275.185,40 275.255,40 275.324,40 275.396,40 275.473,40 275.544,40 275.617,40 275.686,40 275.756,40 275.826,40 275.899,40 275.967,40 276.043,40 276.111,40 276.177,40 276.255,40 276.324,40 276.391,40 276.458,40 276.528,40 276.596,40 276.67,40 276.741,40 276.813,40 276.88,40 276.951,40 277.021,40 277.088,40 277.156,40 277.228,40 277.295,40 277.371,40 277.437,40 277.508,40 277.578,40 277.646,40 277.715,40 277.783,40 277.852,40 277.92,40 277.992,40 278.061,40 278.134,40 278.202,40 278.269,40 278.34,40 278.415,40 278.487,40 278.556,40 278.623,40 278.695,40 278.765,40 278.837,40 278.912,40 278.98,40 279.049,40 279.12,40 279.189,40 279.256,40 279.323,40 279.391,40 279.457,40 279.527,40 279.607,40 279.675,40 279.745,40 279.812,40 279.881,40 279.95,40 280.018,40 280.112,40 280.217,40 280.302,40 280.371,40 280.445,40 280.514,40 280.582,40 280.655,40 280.724,40 280.793,40 280.931,40 283.143,40 699.273,40 699.39,40 699.458,40 699.518,40 699.655,40 699.727,40 699.793,40 699.882,40 699.989,40 700.09,40 700.156,40 700.227,40 700.292,40 700.359,40 700.426,40 700.493,40 700.559,40 700.628,40 700.7,40 700.769,40 700.843,40 700.911,40 700.981,40 701.05,40 701.119,40 701.189,40 701.258,40 701.329,40 701.396,40 701.468,40 701.535,40 701.609,40 701.675,40 701.743,40 701.811,40 701.881,40 701.952,40 702.024,40 702.093,40 702.161,40 702.236,40 702.304,40 702.376,40 702.447,40 702.526,40 702.594,40 702.665,40 702.733,40 702.813,40 702.883,40 702.963,40 703.035,40 703.105,40 703.174,40 703.241,40 703.31,40 703.379,40 703.448,40 703.525,40 703.593,40 703.669,40 703.736,40 703.802,40 703.873,40 703.944,40 704,40" fill="none" stroke="#2563eb" stroke-width="1.5" stroke-linejoin="round" /></g></svg>