<svg xmlns="http://www.w3.org/2000/svg" viewBox="0 0 720 280" width="720" height="280"><rect x="0" y="0" width="720" height="280" fill="#ffffff" /><text x="56" y="24" font-size="14" font-family="system-ui, -apple-system, Segoe UI, Roboto, sans-serif" fill="#1f2933" font-weight="600">Drawdown (24h)</text><text x="14" y="144" text-anchor="middle" font-size="11" font-family="system-ui, -apple-system, Segoe UI, Roboto, sans-serif" fill="#1f2933" transform="rotate(-90 14 144)">Underwater</text><g><line x1="56" y1="40" x2="56" y2="248" stroke="#9aa5b1" stroke-width="1" /><g><line x1="56" y1="238.095" x2="704" y2="238.095" stroke="#e4e7eb" stroke-width="1" stroke-dasharray="2 2" /><line x1="52" y1="238.095" x2="56" y2="238.095" stroke="#9aa5b1" stroke-width="1" /><text x="48" y="242.095" text-anchor="end" font-size="11" font-family="system-ui, -apple-system, Segoe UI, Roboto, sans-serif" fill="#1f2933">-2.0</text></g><g><line x1="56" y1="188.571" x2="704" y2="188.571" stroke="#e4e7eb" stroke-width="1" stroke-dasharray="2 2" /><line x1="52" y1="188.571" x2="56" y2="188.571" stroke="#9aa5b1" stroke-width="1" /><text x="48" y="192.571" text-anchor="end" font-size="11" font-family="system-ui, -apple-system, Segoe UI, Roboto, sans-serif" fill="#1f2933">-1.5</text></g><g><line x1="56" y1="139.047" x2="704" y2="139.047" stroke="#e4e7eb" stroke-width="1" stroke-dasharray="2 2" /><line x1="52" y1="139.047" x2="56" y2="139.047" stroke="#9aa5b1" stroke-width="1" /><text x="48" y="143.047" text-anchor="end" font-size="11" font-family="system-ui, -apple-system, Segoe UI, Roboto, sans-serif" fill="#1f2933">-1.0</text></g><g><line x1="56" y1="89.524" x2="704" y2="89.524" stroke="#e4e7eb" stroke-width="1" stroke-dasharray="2 2" /><line x1="52" y1="89.524" x2="56" y2="89.524" stroke="#9aa5b1" stroke-width="1" /><text x="48" y="93.524" text-anchor="end" font-size="11" font-family="system-ui, -apple-system, Segoe UI, Roboto, sans-serif" fill="#1f2933">-0.5</text></g><g><line x1="56" y1="40" x2="704" y2="40" stroke="#e4e7eb" stroke-width="1" stroke-dasharray="2 2" /><line x1="52" y1="40" x2="56" y2="40" stroke="#9aa5b1" stroke-width="1" /><text x="48" y="44" text-anchor="end" font-size="11" font-family="system-ui, -apple-system, Segoe UI, Roboto, sans-serif" fill="#1f2933">0.0</text></g></g><g><line x1="56" y1="248" x2="704" y2="248" stroke="#9aa5b1" stroke-width="1" /><g><line x1="151.469" y1="248" x2="151.469" y2="252" stroke="#9aa5b1" stroke-width="1" /><text x="151.469" y="264" text-anchor="middle" font-size="11" font-family="system-ui, -apple-system, Segoe UI, Roboto, sans-serif" fill="#1f2933">22:00</text></g><g><line x1="355.335" y1="248" x2="355.335" y2="252" stroke="#9aa5b1" stroke-width="1" /><text x="355.335" y="264" text-anchor="middle" font-size="11" font-family="system-ui, -apple-system, Segoe UI, Roboto, sans-serif" fill="#1f2933">23:00</text></g><g><line x1="559.2" y1="248" x2="559.2" y2="252" stroke="#9aa5b1" stroke-width="1" /><text x="559.2" y="264" text-anchor="middle" font-size="11" font-family="system-ui, -apple-system, Segoe UI, Roboto, sans-serif" fill="#1f2933">00:00</text></g></g><g><path d="M56 40 L56 40 L56.052 40 L56.125 40 L56.201 40 L56.265 40 L56.338 40 L56.401 40 L56.49 40 L56.569 40 L56.63 40 L56.699 40 L56.763 40 L61.354 40 L74.828 40 L74.896 40 L74.973 40 L75.042 40 L75.109 40 L75.184 40 L75.25 40 L75.315 40 L76.237 40 L76.305 40 L76.367 40 L76.433 40 L76.514 40 L76.595 40 L76.675 40 L76.757 40 L76.841 40 L76.929 40 L77.009 40 L77.13 40 L77.226 40 L77.327 40 L77.409 40 L77.493 40 L77.587 40 L77.67 40 L77.771 40 L78.893 40 L79.18 40 L99.293 40 L99.341 40 L99.398 40 L99.431 40 L99.492 40 L99.61 40 L99.741 40 L99.981 40 L100.2 40 L100.485 40 L100.695 42.476 L100.695 44.952 L100.695 47.429 L100.695 49.905 L100.695 52.381 L100.695 54.857 L100.695 57.333 L100.695 59.81 L100.695 62.286 L100.695 64.762 L100.695 67.238 L100.695 69.714 L100.695 72.19 L100.695 74.667 L100.695 77.143 L100.695 79.619 L100.773 79.619 L100.831 79.619 L100.949 79.619 L100.969 79.619 L101.066 79.619 L101.073 79.619 L101.275 79.619 L101.513 79.619 L101.759 79.619 L101.933 79.619 L102.151 79.619 L102.198 79.619 L102.359 79.619 L102.371 79.619 L102.522 79.619 L102.658 79.619 L102.825 79.619 L102.921 79.619 L102.948 82.095 L102.948 84.571 L102.948 87.048 L102.948 89.524 L102.948 92 L102.948 94.476 L102.948 96.952 L102.948 99.429 L102.948 101.905 L102.948 104.381 L102.948 106.857 L102.948 109.333 L102.948 111.809 L102.948 114.286 L102.948 116.762 L102.948 119.238 L102.948 121.714 L102.948 124.19 L102.948 126.667 L102.948 129.143 L103.136 129.143 L103.272 129.143 L103.404 129.143 L103.494 129.143 L103.515 129.143 L103.597 129.143 L103.726 129.143 L103.872 129.143 L104.029 129.143 L104.185 129.143 L104.411 129.143 L104.87 129.143 L105.036 129.143 L105.191 129.143 L105.348 129.143 L105.538 129.143 L105.776 129.143 L106.267 129.143 L106.725 129.143 L107.402 129.143 L107.787 129.143 L107.921 129.143 L108.611 129.143 L109.008 129.143 L109.465 129.143 L109.936 129.143 L110.34 129.143 L110.753 129.143 L111.316 129.143 L111.771 129.143 L112.14 129.143 L112.501 129.143 L112.889 129.143 L113.315 129.143 L113.723 129.143 L114.044 129.143 L114.447 129.143 L114.616 129.143 L115.039 129.143 L115.423 129.143 L115.815 129.143 L116.554 129.143 L116.853 129.143 L116.964 129.143 L117.276 129.143 L117.43 129.143 L117.578 129.143 L117.914 129.143 L117.991 129.143 L118.065 129.143 L118.128 129.143 L118.196 129.143 L118.257 129.143 L118.32 129.143 L118.566 129.143 L118.793 129.143 L118.962 129.143 L119.028 129.143 L119.1 129.143 L119.165 129.143 L119.234 129.143 L119.32 129.143 L119.381 129.143 L119.446 129.143 L119.512 129.143 L119.579 129.143 L119.649 129.143 L119.711 129.143 L119.806 129.143 L120.293 129.143 L120.61 129.143 L120.975 129.143 L121.558 129.143 L121.976 129.143 L122.328 129.143 L122.699 129.143 L122.994 129.143 L123.308 129.143 L123.628 129.143 L124.051 129.143 L124.463 129.143 L124.911 129.143 L125.377 129.143 L125.701 129.143 L126.177 129.143 L126.599 129.143 L126.741 129.143 L126.927 129.143 L127.085 129.143 L127.413 129.143 L127.545 129.143 L127.688 129.143 L128.016 129.143 L128.196 129.143 L128.451 129.143 L128.632 129.143 L128.855 129.143 L129.069 129.143 L129.232 129.143 L129.51 129.143 L129.785 129.143 L129.938 129.143 L130.105 129.143 L130.256 129.143 L130.441 129.143 L130.582 129.143 L130.718 129.143 L130.873 129.143 L131.031 129.143 L131.261 129.143 L131.51 129.143 L131.869 129.143 L132.118 129.143 L132.308 129.143 L132.455 129.143 L132.603 129.143 L132.751 129.143 L132.939 129.143 L133.069 129.143 L133.23 129.143 L133.372 129.143 L133.492 129.143 L133.617 129.143 L133.751 129.143 L133.881 129.143 L134.02 129.143 L134.138 129.143 L134.286 129.143 L134.438 129.143 L134.576 129.143 L134.726 129.143 L134.844 129.143 L134.986 129.143 L135.11 129.143 L135.243 129.143 L135.374 129.143 L135.539 129.143 L135.671 129.143 L135.803 129.143 L135.935 129.143 L136.106 129.143 L136.252 129.143 L136.37 129.143 L136.486 129.143 L136.611 129.143 L136.741 129.143 L136.899 129.143 L137.043 129.143 L137.194 129.143 L137.315 129.143 L137.448 129.143 L137.591 129.143 L137.727 129.143 L137.871 129.143 L138.016 129.143 L138.154 129.143 L138.296 129.143 L138.432 129.143 L138.577 129.143 L138.719 129.143 L138.974 129.143 L139.617 129.143 L139.903 129.143 L140.042 129.143 L140.184 129.143 L140.387 129.143 L140.554 129.143 L140.683 129.143 L140.835 129.143 L140.992 129.143 L141.126 129.143 L141.252 129.143 L141.414 129.143 L141.59 129.143 L141.796 129.143 L142.248 129.143 L142.482 129.143 L142.8 129.143 L143.235 129.143 L143.56 129.143 L143.735 129.143 L143.917 129.143 L144.097 129.143 L144.25 129.143 L144.401 129.143 L144.622 129.143 L145.046 129.143 L145.399 129.143 L145.696 129.143 L146.114 129.143 L146.661 129.143 L147.19 129.143 L147.527 129.143 L147.882 129.143 L148.029 129.143 L148.17 129.143 L148.328 129.143 L148.478 129.143 L148.665 129.143 L148.882 129.143 L149.137 129.143 L149.616 129.143 L150.038 129.143 L150.606 129.143 L150.819 129.143 L150.992 129.143 L151.178 129.143 L151.405 129.143 L151.914 129.143 L154.795 129.143 L169.998 129.143 L170.108 129.143 L170.2 129.143 L170.208 129.143 L170.265 129.143 L170.329 129.143 L170.329 129.143 L170.4 129.143 L170.416 129.143 L170.466 129.143 L170.625 129.143 L170.706 129.143 L170.768 129.143 L170.838 129.143 L170.902 129.143 L170.968 129.143 L171.052 129.143 L171.115 129.143 L171.18 129.143 L171.243 129.143 L171.305 129.143 L171.372 129.143 L171.44 129.143 L171.502 129.143 L171.565 129.143 L171.628 129.143 L171.692 129.143 L171.755 129.143 L171.817 129.143 L171.883 129.143 L171.948 129.143 L172.01 129.143 L172.076 129.143 L172.139 129.143 L172.203 129.143 L172.267 129.143 L172.33 129.143 L172.395 129.143 L172.458 129.143 L172.521 129.143 L172.587 129.143 L172.65 129.143 L172.711 129.143 L172.775 129.143 L172.835 129.143 L172.898 129.143 L172.968 129.143 L173.032 129.143 L173.095 129.143 L173.158 129.143 L173.225 129.143 L173.287 129.143 L173.354 129.143 L173.416 129.143 L173.478 129.143 L173.491 129.143 L173.543 129.143 L173.609 129.143 L173.672 129.143 L173.756 129.143 L173.81 129.143 L173.863 129.143 L173.943 129.143 L174.006 129.143 L174.069 129.143 L174.157 129.143 L174.222 129.143 L174.287 129.143 L174.362 129.143 L174.424 129.143 L174.5 129.143 L174.565 129.143 L174.628 129.143 L174.692 129.143 L174.754 129.143 L174.819 129.143 L174.887 129.143 L174.952 129.143 L175.015 129.143 L175.092 129.143 L175.163 129.143 L175.238 129.143 L175.305 129.143 L175.376 129.143 L175.447 129.143 L175.519 129.143 L175.591 129.143 L175.662 129.143 L175.729 129.143 L175.793 129.143 L175.86 129.143 L175.925 129.143 L175.991 129.143 L176.056 129.143 L176.123 129.143 L176.186 129.143 L176.25 129.143 L176.315 129.143 L176.405 129.143 L176.48 129.143 L176.542 129.143 L176.608 129.143 L176.674 129.143 L176.737 129.143 L176.803 129.143 L176.866 129.143 L176.929 129.143 L176.994 129.143 L177.057 129.143 L177.126 129.143 L177.192 129.143 L177.256 129.143 L177.321 129.143 L177.388 129.143 L177.452 129.143 L177.523 129.143 L177.6 129.143 L177.742 129.143 L177.806 129.143 L177.869 129.143 L178.029 129.143 L178.1 129.143 L178.163 129.143 L178.226 129.143 L178.296 129.143 L178.36 129.143 L178.517 129.143 L178.582 129.143 L178.644 129.143 L178.724 129.143 L178.788 129.143 L178.851 129.143 L178.932 129.143 L178.996 129.143 L179.058 129.143 L179.143 129.143 L179.206 129.143 L179.274 129.143 L179.338 129.143 L179.403 129.143 L179.474 129.143 L179.539 129.143 L179.602 129.143 L179.669 129.143 L179.735 129.143 L179.799 129.143 L179.878 129.143 L179.941 129.143 L180.005 129.143 L180.077 129.143 L180.14 129.143 L180.207 129.143 L180.276 129.143 L180.365 129.143 L180.676 129.143 L180.839 129.143 L180.902 129.143 L180.967 129.143 L181.06 129.143 L181.283 129.143 L181.572 129.143 L181.8 129.143 L182.043 129.143 L182.277 129.143 L182.351 129.143 L182.457 129.143 L182.905 129.143 L186.313 129.143 L207.523 129.143 L207.548 129.143 L207.612 129.143 L207.68 129.143 L207.747 129.143 L208.302 129.143 L225.86 129.143 L226.012 129.143 L226.21 129.143 L226.28 129.143 L226.345 129.143 L226.383 129.143 L226.599 129.143 L226.666 129.143 L226.728 129.143 L227.476 129.143 L242.658 129.143 L242.699 129.143 L242.767 129.143 L242.853 129.143 L242.926 129.143 L243.026 129.143 L243.094 129.143 L243.202 129.143 L243.281 129.143 L243.364 129.143 L244.453 129.143 L254.151 129.143 L254.492 129.143 L254.77 129.143 L255.391 129.143 L255.682 129.143 L256.263 129.143 L256.818 129.143 L257.073 129.143 L257.255 129.143 L257.444 129.143 L257.661 129.143 L257.98 129.143 L258.543 129.143 L259.107 129.143 L259.657 129.143 L260.441 129.143 L260.928 129.143 L261.464 129.143 L261.781 129.143 L261.844 129.143 L261.912 129.143 L261.977 129.143 L262.043 129.143 L262.108 129.143 L262.171 129.143 L262.236 129.143 L262.298 129.143 L262.361 129.143 L262.427 129.143 L262.491 129.143 L262.553 129.143 L262.617 129.143 L262.68 129.143 L262.746 129.143 L262.812 129.143 L262.877 129.143 L262.959 129.143 L263.023 129.143 L263.087 129.143 L263.148 129.143 L263.211 129.143 L263.278 129.143 L263.345 129.143 L263.454 129.143 L263.941 129.143 L268.439 129.143 L285.458 129.143 L285.539 129.143 L285.623 129.143 L285.689 129.143 L285.753 129.143 L285.82 129.143 L285.907 129.143 L285.971 129.143 L286.04 129.143 L286.104 129.143 L286.171 129.143 L286.241 129.143 L286.303 129.143 L286.367 129.143 L286.431 129.143 L286.492 129.143 L286.555 129.143 L286.618 129.143 L286.681 129.143 L286.744 129.143 L286.81 129.143 L286.882 129.143 L286.95 129.143 L287.013 129.143 L287.089 129.143 L287.154 129.143 L287.22 129.143 L287.305 129.143 L287.368 129.143 L287.436 129.143 L287.499 129.143 L287.56 129.143 L287.631 129.143 L287.697 129.143 L287.765 129.143 L287.831 129.143 L287.901 129.143 L287.974 129.143 L288.037 129.143 L288.102 129.143 L288.183 129.143 L288.245 129.143 L288.31 129.143 L288.379 129.143 L288.441 129.143 L288.504 129.143 L288.576 129.143 L288.637 129.143 L288.708 129.143 L288.78 129.143 L288.848 129.143 L288.914 129.143 L288.977 129.143 L289.043 129.143 L289.11 129.143 L289.176 129.143 L289.241 129.143 L289.316 129.143 L289.379 129.143 L289.443 129.143 L289.51 129.143 L289.572 129.143 L289.637 129.143 L289.702 129.143 L289.764 129.143 L289.831 129.143 L289.892 129.143 L289.957 129.143 L290.019 129.143 L290.107 129.143 L290.171 129.143 L290.238 129.143 L290.3 129.143 L290.389 129.143 L290.455 129.143 L290.525 129.143 L290.591 129.143 L290.654 129.143 L290.727 129.143 L290.79 129.143 L290.861 129.143 L290.935 129.143 L290.997 129.143 L291.059 129.143 L291.122 129.143 L291.186 129.143 L291.253 129.143 L291.322 129.143 L291.385 129.143 L291.464 129.143 L291.526 129.143 L291.588 129.143 L291.654 129.143 L291.717 129.143 L291.782 129.143 L291.85 129.143 L291.912 129.143 L291.979 129.143 L292.044 129.143 L292.11 129.143 L292.174 129.143 L292.237 129.143 L292.305 129.143 L292.375 129.143 L292.436 129.143 L292.5 129.143 L292.515 129.143 L292.546 129.143 L292.608 129.143 L292.676 129.143 L292.742 129.143 L292.809 129.143 L292.882 129.143 L292.949 129.143 L293.015 129.143 L293.081 129.143 L293.143 129.143 L293.21 129.143 L293.273 129.143 L293.338 129.143 L293.411 129.143 L293.472 129.143 L293.537 129.143 L293.608 129.143 L293.673 129.143 L293.74 129.143 L293.804 129.143 L293.87 129.143 L293.97 129.143 L294.031 129.143 L294.106 129.143 L294.17 129.143 L294.234 129.143 L294.3 129.143 L294.362 129.143 L294.425 129.143 L294.497 129.143 L294.56 129.143 L294.63 131.619 L294.63 131.619 L294.63 134.095 L294.63 136.571 L294.63 139.048 L294.63 141.524 L294.63 144 L294.63 146.476 L294.63 148.952 L294.63 151.429 L294.63 153.905 L294.63 156.381 L294.63 158.857 L294.63 161.333 L294.63 163.809 L294.63 166.286 L294.63 168.762 L294.63 248 L294.703 248 L294.766 248 L294.898 248 L294.964 248 L295.029 248 L295.175 248 L295.237 248 L295.422 248 L295.491 248 L295.578 248 L295.643 248 L295.753 248 L295.819 248 L295.903 248 L295.994 248 L296.057 248 L296.158 248 L296.225 248 L296.318 248 L296.39 248 L296.473 248 L296.535 248 L296.601 248 L296.683 248 L296.746 248 L296.825 248 L296.892 248 L296.955 248 L297.022 248 L297.086 248 L297.153 248 L297.251 248 L297.315 248 L297.387 248 L297.451 248 L297.513 248 L297.6 248 L297.664 248 L297.731 248 L297.795 248 L297.86 248 L297.937 248 L297.998 248 L298.061 248 L298.128 248 L298.191 248 L298.252 248 L298.316 248 L298.381 248 L298.446 248 L298.509 248 L298.572 248 L298.64 248 L298.703 248 L298.767 248 L298.834 248 L298.897 248 L298.959 248 L299.029 248 L299.091 248 L299.157 248 L299.22 248 L299.282 248 L299.351 248 L299.366 248 L299.428 248 L299.494 248 L299.56 248 L299.629 248 L299.692 248 L299.756 248 L299.821 248 L299.9 248 L299.961 248 L300.029 248 L300.094 248 L300.157 248 L300.225 248 L300.287 248 L300.352 248 L300.419 248 L300.482 248 L300.571 248 L300.638 248 L300.702 248 L300.776 248 L300.84 248 L300.905 248 L300.969 248 L301.033 248 L301.106 248 L301.172 248 L301.236 248 L301.299 248 L301.365 248 L301.429 248 L301.498 248 L301.564 248 L301.634 248 L301.7 248 L301.764 248 L301.836 248 L301.898 248 L301.961 248 L302.026 248 L302.089 248 L302.155 248 L302.218 248 L302.281 248 L302.345 248 L302.418 248 L302.487 248 L302.551 248 L302.62 248 L302.685 248 L302.75 248 L302.814 248 L302.879 248 L302.945 248 L303.013 248 L303.08 248 L303.144 248 L303.207 248 L303.273 248 L303.342 248 L303.404 248 L303.47 248 L303.533 248 L303.594 248 L303.655 248 L303.717 248 L303.782 248 L303.845 248 L303.909 248 L303.973 248 L304.038 248 L304.104 248 L304.203 248 L304.266 248 L304.33 248 L304.402 248 L304.509 248 L304.6 248 L304.691 248 L304.762 248 L304.827 248 L304.892 248 L304.958 248 L305.03 248 L305.096 248 L305.164 248 L305.228 248 L305.293 248 L305.358 248 L305.427 248 L305.489 248 L305.56 248 L305.624 248 L305.685 248 L305.758 248 L305.822 248 L305.884 248 L305.947 248 L306.012 248 L306.076 248 L306.144 248 L306.21 248 L306.277 248 L306.34 248 L306.406 248 L306.471 248 L306.533 248 L306.597 248 L306.664 248 L306.727 248 L306.796 248 L306.859 248 L306.924 248 L306.99 248 L307.053 248 L307.117 248 L307.181 248 L307.245 248 L307.308 248 L307.375 248 L307.439 248 L307.507 248 L307.571 248 L307.633 248 L307.7 248 L307.769 248 L307.836 248 L307.9 248 L307.963 248 L308.029 248 L308.094 248 L308.162 248 L308.232 248 L308.295 248 L308.359 248 L308.426 248 L308.49 248 L308.552 248 L308.614 248 L308.677 248 L308.739 248 L308.804 248 L308.879 248 L308.942 248 L309.007 248 L309.069 248 L309.134 248 L309.198 248 L309.261 248 L309.349 248 L309.447 248 L309.525 248 L309.59 248 L309.659 248 L309.723 248 L309.786 248 L309.855 248 L309.918 248 L309.983 248 L310.111 248 L312.171 248 L699.599 248 L699.708 248 L699.771 248 L699.827 248 L699.955 248 L700.022 248 L700.084 248 L700.166 248 L700.266 248 L700.359 248 L700.421 248 L700.487 248 L700.548 248 L700.61 248 L700.673 248 L700.735 248 L700.796 248 L700.861 248 L700.928 248 L700.992 248 L701.061 248 L701.124 248 L701.189 248 L701.254 248 L701.318 248 L701.383 248 L701.447 248 L701.513 248 L701.576 248 L701.642 248 L701.705 248 L701.774 248 L701.836 248 L701.899 248 L701.962 248 L702.027 248 L702.093 248 L702.16 248 L702.225 248 L702.288 248 L702.357 248 L702.421 248 L702.488 248 L702.554 248 L702.628 248 L702.691 248 L702.757 248 L702.82 248 L702.895 248 L702.96 248 L703.034 248 L703.102 248 L703.167 248 L703.231 248 L703.294 248 L703.357 248 L703.421 248 L703.486 248 L703.558 248 L703.621 248 L703.692 248 L703.754 248 L703.816 248 L703.882 248 L703.948 248 L704 248 L704 40 Z" fill="#fca5a5" fill-opacity="0.6" stroke="none" /><polyline points="56,40 56.052,40 56.125,40 56.201,40 56.265,40 56.338,40 56.401,40 56.49,40 56.569,40 56.63,40 56.699,40 56.763,40 61.354,40 74.828,40 74.896,40 74.973,40 75.042,40 75.109,40 75.184,40 75.25,40 75.315,40 76.237,40 76.305,40 76.367,40 76.433,40 76.514,40 76.595,40 76.675,40 76.757,40 76.841,40 76.929,40 77.009,40 77.13,40 77.226,40 77.327,40 77.409,40 77.493,40 77.587,40 77.67,40 77.771,40 78.893,40 79.18,40 99.293,40 99.341,40 99.398,40 99.431,40 99.492,40 99.61,40 99.741,40 99.981,40 100.2,40 100.485,40 100.695,42.476 100.695,44.952 100.695,47.429 100.695,49.905 100.695,52.381 100.695,54.857 100.695,57.333 100.695,59.81 100.695,62.286 100.695,64.762 100.695,67.238 100.695,69.714 100.695,72.19 100.695,74.667 100.695,77.143 100.695,79.619 100.773,79.619 100.831,79.619 100.949,79.619 100.969,79.619 101.066,79.619 101.073,79.619 101.275,79.619 101.513,79.619 101.759,79.619 101.933,79.619 102.151,79.619 102.198,79.619 102.359,79.619 102.371,79.619 102.522,79.619 102.658,79.619 102.825,79.619 102.921,79.619 102.948,82.095 102.948,84.571 102.948,87.048 102.948,89.524 102.948,92 102.948,94.476 102.948,96.952 102.948,99.429 102.948,101.905 102.948,104.381 102.948,106.857 102.948,109.333 102.948,111.809 102.948,114.286 102.948,116.762 102.948,119.238 102.948,121.714 102.948,124.19 102.948,126.667 102.948,129.143 103.136,129.143 103.272,129.143 103.404,129.143 103.494,129.143 103.515,129.143 103.597,129.143 103.726,129.143 103.872,129.143 104.029,129.143 104.185,129.143 104.411,129.143 104.87,129.143 105.036,129.143 105.191,129.143 105.348,129.143 105.538,129.143 105.776,129.143 106.267,129.143 106.725,129.143 107.402,129.143 107.787,129.143 107.921,129.143 108.611,129.143 109.008,129.143 109.465,129.143 109.936,129.143 110.34,129.143 110.753,129.143 111.316,129.143 111.771,129.143 112.14,129.143 112.501,129.143 112.889,129.143 113.315,129.143 113.723,129.143 114.044,129.143 114.447,129.143 114.616,129.143 115.039,129.143 115.423,129.143 115.815,129.143 116.554,129.143 116.853,129.143 116.964,129.143 117.276,129.143 117.43,129.143 117.578,129.143 117.914,129.143 117.991,129.143 118.065,129.143 118.128,129.143 118.196,129.143 118.257,129.143 118.32,129.143 118.566,129.143 118.793,129.143 118.962,129.143 119.028,129.143 119.1,129.143 119.165,129.143 119.234,129.143 119.32,129.143 119.381,129.143 119.446,129.143 119.512,129.143 119.579,129.143 119.649,129.143 119.711,129.143 119.806,129.143 120.293,129.143 120.61,129.143 120.975,129.143 121.558,129.143 121.976,129.143 122.328,129.143 122.699,129.143 122.994,129.143 123.308,129.143 123.628,129.143 124.051,129.143 124.463,129.143 124.911,129.143 125.377,129.143 125.701,129.143 126.177,129.143 126.599,129.143 126.741,129.143 126.927,129.143 127.085,129.143 127.413,129.143 127.545,129.143 127.688,129.143 128.016,129.143 128.196,129.143 128.451,129.143 128.632,129.143 128.855,129.143 129.069,129.143 129.232,129.143 129.51,129.143 129.785,129.143 129.938,129.143 130.105,129.143 130.256,129.143 130.441,129.143 130.582,129.143 130.718,129.143 130.873,129.143 131.031,129.143 131.261,129.143 131.51,129.143 131.869,129.143 132.118,129.143 132.308,129.143 132.455,129.143 132.603,129.143 132.751,129.143 132.939,129.143 133.069,129.143 133.23,129.143 133.372,129.143 133.492,129.143 133.617,129.143 133.751,129.143 133.881,129.143 134.02,129.143 134.138,129.143 134.286,129.143 134.438,129.143 134.576,129.143 134.726,129.143 134.844,129.143 134.986,129.143 135.11,129.143 135.243,129.143 135.374,129.143 135.539,129.143 135.671,129.143 135.803,129.143 135.935,129.143 136.106,129.143 136.252,129.143 136.37,129.143 136.486,129.143 136.611,129.143 136.741,129.143 136.899,129.143 137.043,129.143 137.194,129.143 137.315,129.143 137.448,129.143 137.591,129.143 137.727,129.143 137.871,129.143 138.016,129.143 138.154,129.143 138.296,129.143 138.432,129.143 138.577,129.143 138.719,129.143 138.974,129.143 139.617,129.143 139.903,129.143 140.042,129.143 140.184,129.143 140.387,129.143 140.554,129.143 140.683,129.143 140.835,129.143 140.992,129.143 141.126,129.143 141.252,129.143 141.414,129.143 141.59,129.143 141.796,129.143 142.248,129.143 142.482,129.143 142.8,129.143 143.235,129.143 143.56,129.143 143.735,129.143 143.917,129.143 144.097,129.143 144.25,129.143 144.401,129.143 144.622,129.143 145.046,129.143 145.399,129.143 145.696,129.143 146.114,129.143 146.661,129.143 147.19,129.143 147.527,129.143 147.882,129.143 148.029,129.143 148.17,129.143 148.328,129.143 148.478,129.143 148.665,129.143 148.882,129.143 149.137,129.143 149.616,129.143 150.038,129.143 150.606,129.143 150.819,129.143 150.992,129.143 151.178,129.143 151.405,129.143 151.914,129.143 154.795,129.143 169.998,129.143 170.108,129.143 170.2,129.143 170.208,129.143 170.265,129.143 170.329,129.143 170.329,129.143 170.4,129.143 170.416,129.143 170.466,129.143 170.625,129.143 170.706,129.143 170.768,129.143 170.838,129.143 170.902,129.143 170.968,129.143 171.052,129.143 171.115,129.143 171.18,129.143 171.243,129.143 171.305,129.143 171.372,129.143 171.44,129.143 171.502,129.143 171.565,129.143 171.628,129.143 171.692,129.143 171.755,129.143 171.817,129.143 171.883,129.143 171.948,129.143 172.01,129.143 172.076,129.143 172.139,129.143 172.203,129.143 172.267,129.143 172.33,129.143 172.395,129.143 172.458,129.143 172.521,129.143 172.587,129.143 172.65,129.143 172.711,129.143 172.775,129.143 172.835,129.143 172.898,129.143 172.968,129.143 173.032,129.143 173.095,129.143 173.158,129.143 173.225,129.143 173.287,129.143 173.354,129.143 173.416,129.143 173.478,129.143 173.491,129.143 173.543,129.143 173.609,129.143 173.672,129.143 173.756,129.143 173.81,129.143 173.863,129.143 173.943,129.143 174.006,129.143 174.069,129.143 174.157,129.143 174.222,129.143 174.287,129.143 174.362,129.143 174.424,129.143 174.5,129.143 174.565,129.143 174.628,129.143 174.692,129.143 174.754,129.143 174.819,129.143 174.887,129.143 174.952,129.143 175.015,129.143 175.092,129.143 175.163,129.143 175.238,129.143 175.305,129.143 175.376,129.143 175.447,129.143 175.519,129.143 175.591,129.143 175.662,129.143 175.729,129.143 175.793,129.143 175.86,129.143 175.925,129.143 175.991,129.143 176.056,129.143 176.123,129.143 176.186,129.143 176.25,129.143 176.315,129.143 176.405,129.143 176.48,129.143 176.542,129.143 176.608,129.143 176.674,129.143 176.737,129.143 176.803,129.143 176.866,129.143 176.929,129.143 176.994,129.143 177.057,129.143 177.126,129.143 177.192,129.143 177.256,129.143 177.321,129.143 177.388,129.143 177.452,129.143 177.523,129.143 177.6,129.143 177.742,129.143 177.806,129.143 177.869,129.143 178.029,129.143 178.1,129.143 178.163,129.143 178.226,129.143 178.296,129.143 178.36,129.143 178.517,129.143 178.582,129.143 178.644,129.143 178.724,129.143 178.788,129.143 178.851,129.143 178.932,129.143 178.996,129.143 179.058,129.143 179.143,129.143 179.206,129.143 179.274,129.143 179.338,129.143 179.403,129.143 179.474,129.143 179.539,129.143 179.602,129.143 179.669,129.143 179.735,129.143 179.799,129.143 179.878,129.143 179.941,129.143 180.005,129.143 180.077,129.143 180.14,129.143 180.207,129.143 180.276,129.143 180.365,129.143 180.676,129.143 180.839,129.143 180.902,129.143 180.967,129.143 181.06,129.143 181.283,129.143 181.572,129.143 181.8,129.143 182.043,129.143 182.277,129.143 182.351,129.143 182.457,129.143 182.905,129.143 186.313,129.143 207.523,129.143 207.548,129.143 207.612,129.143 207.68,129.143 207.747,129.143 208.302,129.143 225.86,129.143 226.012,129.143 226.21,129.143 226.28,129.143 226.345,129.143 226.383,129.143 226.599,129.143 226.666,129.143 226.728,129.143 227.476,129.143 242.658,129.143 242.699,129.143 242.767,129.143 242.853,129.143 242.926,129.143 243.026,129.143 243.094,129.143 243.202,129.143 243.281,129.143 243.364,129.143 244.453,129.143 254.151,129.143 254.492,129.143 254.77,129.143 255.391,129.143 255.682,129.143 256.263,129.143 256.818,129.143 257.073,129.143 257.255,129.143 257.444,129.143 257.661,129.143 257.98,129.143 258.543,129.143 259.107,129.143 259.657,129.143 260.441,129.143 260.928,129.143 261.464,129.143 261.781,129.143 261.844,129.143 261.912,129.143 261.977,129.143 262.043,129.143 262.108,129.143 262.171,129.143 262.236,129.143 262.298,129.143 262.361,129.143 262.427,129.143 262.491,129.143 262.553,129.143 262.617,129.143 262.68,129.143 262.746,129.143 262.812,129.143 262.877,129.143 262.959,129.143 263.023,129.143 263.087,129.143 263.148,129.143 263.211,129.143 263.278,129.143 263.345,129.143 263.454,129.143 263.941,129.143 268.439,129.143 285.458,129.143 285.539,129.143 285.623,129.143 285.689,129.143 285.753,129.143 285.82,129.143 285.907,129.143 285.971,129.143 286.04,129.143 286.104,129.143 286.171,129.143 286.241,129.143 286.303,129.143 286.367,129.143 286.431,129.143 286.492,129.143 286.555,129.143 286.618,129.143 286.681,129.143 286.744,129.143 286.81,129.143 286.882,129.143 286.95,129.143 287.013,129.143 287.089,129.143 287.154,129.143 287.22,129.143 287.305,129.143 287.368,129.143 287.436,129.143 287.499,129.143 287.56,129.143 287.631,129.143 287.697,129.143 287.765,129.143 287.831,129.143 287.901,129.143 287.974,129.143 288.037,129.143 288.102,129.143 288.183,129.143 288.245,129.143 288.31,129.143 288.379,129.143 288.441,129.143 288.504,129.143 288.576,129.143 288.637,129.143 288.708,129.143 288.78,129.143 288.848,129.143 288.914,129.143 288.977,129.143 289.043,129.143 289.11,129.143 289.176,129.143 289.241,129.143 289.316,129.143 289.379,129.143 289.443,129.143 289.51,129.143 289.572,129.143 289.637,129.143 289.702,129.143 289.764,129.143 289.831,129.143 289.892,129.143 289.957,129.143 290.019,129.143 290.107,129.143 290.171,129.143 290.238,129.143 290.3,129.143 290.389,129.143 290.455,129.143 290.525,129.143 290.591,129.143 290.654,129.143 290.727,129.143 290.79,129.143 290.861,129.143 290.935,129.143 290.997,129.143 291.059,129.143 291.122,129.143 291.186,129.143 291.253,129.143 291.322,129.143 291.385,129.143 291.464,129.143 291.526,129.143 291.588,129.143 291.654,129.143 291.717,129.143 291.782,129.143 291.85,129.143 291.912,129.143 291.979,129.143 292.044,129.143 292.11,129.143 292.174,129.143 292.237,129.143 292.305,129.143 292.375,129.143 292.436,129.143 292.5,129.143 292.515,129.143 292.546,129.143 292.608,129.143 292.676,129.143 292.742,129.143 292.809,129.143 292.882,129.143 292.949,129.143 293.015,129.143 293.081,129.143 293.143,129.143 293.21,129.143 293.273,129.143 293.338,129.143 293.411,129.143 293.472,129.143 293.537,129.143 293.608,129.143 293.673,129.143 293.74,129.143 293.804,129.143 293.87,129.143 293.97,129.143 294.031,129.143 294.106,129.143 294.17,129.143 294.234,129.143 294.3,129.143 294.362,129.143 294.425,129.143 294.497,129.143 294.56,129.143 294.63,131.619 294.63,131.619 294.63,134.095 294.63,136.571 294.63,139.048 294.63,141.524 294.63,144 294.63,146.476 294.63,148.952 294.63,151.429 294.63,153.905 294.63,156.381 294.63,158.857 294.63,161.333 294.63,163.809 294.63,166.286 294.63,168.762 294.63,248 294.703,248 294.766,248 294.898,248 294.964,248 295.029,248 295.175,248 295.237,248 295.422,248 295.491,248 295.578,248 295.643,248 295.753,248 295.819,248 295.903,248 295.994,248 296.057,248 296.158,248 296.225,248 296.318,248 296.39,248 296.473,248 296.535,248 296.601,248 296.683,248 296.746,248 296.825,248 296.892,248 296.955,248 297.022,248 297.086,248 297.153,248 297.251,248 297.315,248 297.387,248 297.451,248 297.513,248 297.6,248 297.664,248 297.731,248 297.795,248 297.86,248 297.937,248 297.998,248 298.061,248 298.128,248 298.191,248 298.252,248 298.316,248 298.381,248 298.446,248 298.509,248 298.572,248 298.64,248 298.703,248 298.767,248 298.834,248 298.897,248 298.959,248 299.029,248 299.091,248 299.157,248 299.22,248 299.282,248 299.351,248 299.366,248 299.428,248 299.494,248 299.56,248 299.629,248 299.692,248 299.756,248 299.821,248 299.9,248 299.961,248 300.029,248 300.094,248 300.157,248 300.225,248 300.287,248 300.352,248 300.419,248 300.482,248 300.571,248 300.638,248 300.702,248 300.776,248 300.84,248 300.905,248 300.969,248 301.033,248 301.106,248 301.172,248 301.236,248 301.299,248 301.365,248 301.429,248 301.498,248 301.564,248 301.634,248 301.7,248 301.764,248 301.836,248 301.898,248 301.961,248 302.026,248 302.089,248 302.155,248 302.218,248 302.281,248 302.345,248 302.418,248 302.487,248 302.551,248 302.62,248 302.685,248 302.75,248 302.814,248 302.879,248 302.945,248 303.013,248 303.08,248 303.144,248 303.207,248 303.273,248 303.342,248 303.404,248 303.47,248 303.533,248 303.594,248 303.655,248 303.717,248 303.782,248 303.845,248 303.909,248 303.973,248 304.038,248 304.104,248 304.203,248 304.266,248 304.33,248 304.402,248 304.509,248 304.6,248 304.691,248 304.762,248 304.827,248 304.892,248 304.958,248 305.03,248 305.096,248 305.164,248 305.228,248 305.293,248 305.358,248 305.427,248 305.489,248 305.56,248 305.624,248 305.685,248 305.758,248 305.822,248 305.884,248 305.947,248 306.012,248 306.076,248 306.144,248 306.21,248 306.277,248 306.34,248 306.406,248 306.471,248 306.533,248 306.597,248 306.664,248 306.727,248 306.796,248 306.859,248 306.924,248 306.99,248 307.053,248 307.117,248 307.181,248 307.245,248 307.308,248 307.375,248 307.439,248 307.507,248 307.571,248 307.633,248 307.7,248 307.769,248 307.836,248 307.9,248 307.963,248 308.029,248 308.094,248 308.162,248 308.232,248 308.295,248 308.359,248 308.426,248 308.49,248 308.552,248 308.614,248 308.677,248 308.739,248 308.804,248 308.879,248 308.942,248 309.007,248 309.069,248 309.134,248 309.198,248 309.261,248 309.349,248 309.447,248 309.525,248 309.59,248 309.659,248 309.723,248 309.786,248 309.855,248 309.918,248 309.983,248 310.111,248 312.171,248 699.599,248 699.708,248 699.771,248 699.827,248 699.955,248 700.022,248 700.084,248 700.166,248 700.266,248 700.359,248 700.421,248 700.487,248 700.548,248 700.61,248 700.673,248 700.735,248 700.796,248 700.861,248 700.928,248 700.992,248 701.061,248 701.124,248 701.189,248 701.254,248 701.318,248 701.383,248 701.447,248 701.513,248 701.576,248 701.642,248 701.705,248 701.774,248 701.836,248 701.899,248 701.962,248 702.027,248 702.093,248 702.16,248 702.225,248 702.288,248 702.357,248 702.421,248 702.488,248 702.554,248 702.628,248 702.691,248 702.757,248 702.82,248 702.895,248 702.96,248 703.034,248 703.102,248 703.167,248 703.231,248 703.294,248 703.357,248 703.421,248 703.486,248 703.558,248 703.621,248 703.692,248 703.754,248 703.816,248 703.882,248 703.948,248 704,248" fill="none" stroke="#dc2626" stroke-width="1.5" stroke-linejoin="round" /></g></svg>