<svg xmlns="http://www.w3.org/2000/svg" viewBox="0 0 720 280" width="720" height="280"><rect x="0" y="0" width="720" height="280" fill="#ffffff" /><text x="56" y="24" font-size="14" font-family="system-ui, -apple-system, Segoe UI, Roboto, sans-serif" fill="#1f2933" font-weight="600">Equity Curve (7d)</text><text x="14" y="144" text-anchor="middle" font-size="11" font-family="system-ui, -apple-system, Segoe UI, Roboto, sans-serif" fill="#1f2933" transform="rotate(-90 14 144)">Cumulative Net PnL</text><g><line x1="56" y1="40" x2="56" y2="248" stroke="#9aa5b1" stroke-width="1" /><g><line x1="56" y1="205.066" x2="704" y2="205.066" stroke="#e4e7eb" stroke-width="1" stroke-dasharray="2 2" /><line x1="52" y1="205.066" x2="56" y2="205.066" stroke="#9aa5b1" stroke-width="1" /><text x="48" y="209.066" text-anchor="end" font-size="11" font-family="system-ui, -apple-system, Segoe UI, Roboto, sans-serif" fill="#1f2933">-20</text></g><g><line x1="56" y1="126.307" x2="704" y2="126.307" stroke="#e4e7eb" stroke-width="1" stroke-dasharray="2 2" /><line x1="52" y1="126.307" x2="56" y2="126.307" stroke="#9aa5b1" stroke-width="1" /><text x="48" y="130.307" text-anchor="end" font-size="11" font-family="system-ui, -apple-system, Segoe UI, Roboto, sans-serif" fill="#1f2933">-10</text></g><g><line x1="56" y1="47.547" x2="704" y2="47.547" stroke="#e4e7eb" stroke-width="1" stroke-dasharray="2 2" /><line x1="52" y1="47.547" x2="56" y2="47.547" stroke="#9aa5b1" stroke-width="1" /><text x="48" y="51.547" text-anchor="end" font-size="11" font-family="system-ui, -apple-system, Segoe UI, Roboto, sans-serif" fill="#1f2933">0</text></g></g><g><line x1="56" y1="248" x2="704" y2="248" stroke="#9aa5b1" stroke-width="1" /><g><line x1="155.135" y1="248" x2="155.135" y2="252" stroke="#9aa5b1" stroke-width="1" /><text x="155.135" y="264" text-anchor="middle" font-size="11" font-family="system-ui, -apple-system, Segoe UI, Roboto, sans-serif" fill="#1f2933">11:00</text></g><g><line x1="277.499" y1="248" x2="277.499" y2="252" stroke="#9aa5b1" stroke-width="1" /><text x="277.499" y="264" text-anchor="middle" font-size="11" font-family="system-ui, -apple-system, Segoe UI, Roboto, sans-serif" fill="#1f2933">11:30</text></g><g><line x1="399.863" y1="248" x2="399.863" y2="252" stroke="#9aa5b1" stroke-width="1" /><text x="399.863" y="264" text-anchor="middle" font-size="11" font-family="system-ui, -apple-system, Segoe UI, Roboto, sans-serif" fill="#1f2933">12:00</text></g><g><line x1="522.226" y1="248" x2="522.226" y2="252" stroke="#9aa5b1" stroke-width="1" /><text x="522.226" y="264" text-anchor="middle" font-size="11" font-family="system-ui, -apple-system, Segoe UI, Roboto, sans-serif" fill="#1f2933">12:30</text></g><g><line x1="644.59" y1="248" x2="644.59" y2="252" stroke="#9aa5b1" stroke-width="1" /><text x="644.59" y="264" text-anchor="middle" font-size="11" font-family="system-ui, -apple-system, Segoe UI, Roboto, sans-serif" fill="#1f2933">13:00</text></g></g><g><polyline points="56,47.547 60.255,47.547 61.93,47.547 64.198,47.547 65.647,40.245 68.116,40.245 70.156,40.245 87.568,40.245 101.97,40.245 104.553,40.245 106.661,40.245 108.7,40.245 110.807,40.245 113.354,40.245 114.886,40.245 116.994,40.245 117.368,40.245 123.248,40.245 127.395,40.245 129.434,40.245 137.857,40.245 142.146,40.245 144.539,40.245 148.834,40.245 169.086,40.245 171.174,40.245 173.281,40.245 175.388,40.245 178.348,40.245 181.575,40.245 182,40.245 186.07,40.245 187.829,40.245 188.124,40.245 194.015,40.245 198.162,40.245 200.201,40.245 202.309,40.245 206.455,40.245 208.563,40.245 210.67,40.245 212.778,40.245 218.964,40.245 221.071,40.245 223.11,40.245 225.217,40.245 227.257,40.245 229.669,40.245 231.404,40.245 235.485,40.245 237.658,40.245 241.805,40.245 245.952,40.245 250.098,40.245 252.206,40.245 254.313,40.245 255.795,40.245 258.528,40.245 260.635,40.245 262.674,40.245 264.782,40.245 266.821,40.245 269.421,40.245 275.183,40.245 277.29,40.245 279.623,40.245 281.73,40.245 283.477,40.245 285.584,40.245 288.159,40.245 293.946,40.245 296.053,40.245 300.131,40.245 304.278,40.245 306.386,40.245 308.493,40.245 310.601,40.245 312.938,40.245 314.747,40.245 316.787,40.245 318.894,40.245 320.933,40.245 322.973,40.245 325.08,40.245 339.628,40.245 341.735,40.245 345.882,40.245 350.029,40.245 356.215,40.245 364.644,40.245 365.589,40.245 366.684,40.245 370.831,40.245 372.87,40.245 373.359,40.245 374.978,40.245 377.085,40.245 379.192,40.245 379.553,40.245 381.528,40.245 383.642,40.245 385.379,40.245 385.885,40.245 386.076,40 391.632,40 393.74,40 395.847,40 397.955,40 404.141,40 412.57,40 414.678,40 417.806,40 418.825,40 420.864,40 422.971,40 425.01,40 431.265,40 435.479,40 439.558,40 441.665,40 443.773,40 447.988,40 452.067,40 454.174,40 454.35,40 458.389,40 468.586,40 470.693,40 472.801,40 475.249,40 476.947,40 478.986,40 481.094,40 483.133,40 489.319,40 499.45,40 501.556,40 501.89,40 503.663,40 504.032,40 507.81,40 511.957,40 514.064,40 516.172,40 518.279,40 520.386,40 524.533,40 526.572,40 536.776,248 543.296,248 554.444,248 556.484,248 562.738,248 564.777,248 566.816,248 579.325,248 583.404,248 585.511,248 587.551,248 589.59,248 593.805,248 599.923,248 600.662,248 602.03,248 606.109,248 606.546,246.667 610.324,246.667 612.431,246.667 614.82,246.667 616.578,246.667 620.793,246.667 620.986,246.667 624.871,246.667 629.018,246.667 631.126,246.667 632.467,246.667 635.273,246.667 637.38,246.667 641.526,246.667 643.566,246.667 647.781,246.667 649.918,246.667 656.548,246.667 658.182,246.667 660.289,246.667 664.436,246.667 666.138,233.029 670.758,233.029 674.904,233.029 677.012,233.029 679.119,233.029 683.198,233.029 685.306,233.029 689.384,233.029 693.531,233.029 695.639,233.029 697.746,233.029 699.853,233.029 703.882,164.49 704,164.49" fill="none" stroke="#2563eb" stroke-width="1.5" stroke-linejoin="round" /></g></svg>