<svg xmlns="http://www.w3.org/2000/svg" viewBox="0 0 720 280" width="720" height="280"><rect x="0" y="0" width="720" height="280" fill="#ffffff" /><text x="56" y="24" font-size="14" font-family="system-ui, -apple-system, Segoe UI, Roboto, sans-serif" fill="#1f2933" font-weight="600">Hourly Markout 5s bps (7d)</text><g><line x1="56" y1="40" x2="56" y2="248" stroke="#9aa5b1" stroke-width="1" /><g><line x1="56" y1="247.826" x2="704" y2="247.826" stroke="#e4e7eb" stroke-width="1" stroke-dasharray="2 2" /><line x1="52" y1="247.826" x2="56" y2="247.826" stroke="#9aa5b1" stroke-width="1" /><text x="48" y="251.826" text-anchor="end" font-size="11" font-family="system-ui, -apple-system, Segoe UI, Roboto, sans-serif" fill="#1f2933">-0.20</text></g><g><line x1="56" y1="192.512" x2="704" y2="192.512" stroke="#e4e7eb" stroke-width="1" stroke-dasharray="2 2" /><line x1="52" y1="192.512" x2="56" y2="192.512" stroke="#9aa5b1" stroke-width="1" /><text x="48" y="196.512" text-anchor="end" font-size="11" font-family="system-ui, -apple-system, Segoe UI, Roboto, sans-serif" fill="#1f2933">-0.10</text></g><g><line x1="56" y1="137.198" x2="704" y2="137.198" stroke="#e4e7eb" stroke-width="1" stroke-dasharray="2 2" /><line x1="52" y1="137.198" x2="56" y2="137.198" stroke="#9aa5b1" stroke-width="1" /><text x="48" y="141.198" text-anchor="end" font-size="11" font-family="system-ui, -apple-system, Segoe UI, Roboto, sans-serif" fill="#1f2933">0.00</text></g><g><line x1="56" y1="81.885" x2="704" y2="81.885" stroke="#e4e7eb" stroke-width="1" stroke-dasharray="2 2" /><line x1="52" y1="81.885" x2="56" y2="81.885" stroke="#9aa5b1" stroke-width="1" /><text x="48" y="85.885" text-anchor="end" font-size="11" font-family="system-ui, -apple-system, Segoe UI, Roboto, sans-serif" fill="#1f2933">0.10</text></g></g><g><line x1="56" y1="248" x2="704" y2="248" stroke="#9aa5b1" stroke-width="1" /><text x="69.5" y="264" text-anchor="middle" font-size="11" font-family="system-ui, -apple-system, Segoe UI, Roboto, sans-serif" fill="#1f2933">00</text><text x="150.5" y="264" text-anchor="middle" font-size="11" font-family="system-ui, -apple-system, Segoe UI, Roboto, sans-serif" fill="#1f2933">03</text><text x="231.5" y="264" text-anchor="middle" font-size="11" font-family="system-ui, -apple-system, Segoe UI, Roboto, sans-serif" fill="#1f2933">06</text><text x="312.5" y="264" text-anchor="middle" font-size="11" font-family="system-ui, -apple-system, Segoe UI, Roboto, sans-serif" fill="#1f2933">09</text><text x="393.5" y="264" text-anchor="middle" font-size="11" font-family="system-ui, -apple-system, Segoe UI, Roboto, sans-serif" fill="#1f2933">12</text><text x="474.5" y="264" text-anchor="middle" font-size="11" font-family="system-ui, -apple-system, Segoe UI, Roboto, sans-serif" fill="#1f2933">15</text><text x="555.5" y="264" text-anchor="middle" font-size="11" font-family="system-ui, -apple-system, Segoe UI, Roboto, sans-serif" fill="#1f2933">18</text><text x="636.5" y="264" text-anchor="middle" font-size="11" font-family="system-ui, -apple-system, Segoe UI, Roboto, sans-serif" fill="#1f2933">21</text></g><g><rect x="58.7" y="137.198" width="21.6" height="0" fill="#16a34a" opacity="0.9" /><rect x="85.7" y="137.198" width="21.6" height="0" fill="#16a34a" opacity="0.9" /><rect x="112.7" y="137.198" width="21.6" height="0" fill="#16a34a" opacity="0.9" /><rect x="139.7" y="137.198" width="21.6" height="0" fill="#16a34a" opacity="0.9" /><rect x="166.7" y="137.198" width="21.6" height="0" fill="#16a34a" opacity="0.9" /><rect x="193.7" y="137.198" width="21.6" height="0" fill="#16a34a" opacity="0.9" /><rect x="220.7" y="137.198" width="21.6" height="0" fill="#16a34a" opacity="0.9" /><rect x="247.7" y="137.198" width="21.6" height="0" fill="#16a34a" opacity="0.9" /><rect x="274.7" y="137.198" width="21.6" height="0" fill="#16a34a" opacity="0.9" /><rect x="301.7" y="137.198" width="21.6" height="0" fill="#16a34a" opacity="0.9" /><rect x="328.7" y="40" width="21.6" height="97.198" fill="#16a34a" opacity="0.9" /><rect x="355.7" y="137.198" width="21.6" height="74.478" fill="#dc2626" opacity="0.9" /><rect x="382.7" y="137.198" width="21.6" height="110.802" fill="#dc2626" opacity="0.9" /><rect x="409.7" y="137.198" width="21.6" height="55.66" fill="#dc2626" opacity="0.9" /><rect x="436.7" y="137.198" width="21.6" height="0" fill="#16a34a" opacity="0.9" /><rect x="463.7" y="137.198" width="21.6" height="0" fill="#16a34a" opacity="0.9" /><rect x="490.7" y="137.198" width="21.6" height="0" fill="#16a34a" opacity="0.9" /><rect x="517.7" y="137.198" width="21.6" height="0" fill="#16a34a" opacity="0.9" /><rect x="544.7" y="137.198" width="21.6" height="0" fill="#16a34a" opacity="0.9" /><rect x="571.7" y="137.198" width="21.6" height="0" fill="#16a34a" opacity="0.9" /><rect x="598.7" y="137.198" width="21.6" height="0" fill="#16a34a" opacity="0.9" /><rect x="625.7" y="137.198" width="21.6" height="0" fill="#16a34a" opacity="0.9" /><rect x="652.7" y="137.198" width="21.6" height="0" fill="#16a34a" opacity="0.9" /><rect x="679.7" y="137.198" width="21.6" height="0" fill="#16a34a" opacity="0.9" /></g></svg>