<svg xmlns="http://www.w3.org/2000/svg" viewBox="0 0 720 280" width="720" height="280"><rect x="0" y="0" width="720" height="280" fill="#ffffff" /><text x="56" y="24" font-size="14" font-family="system-ui, -apple-system, Segoe UI, Roboto, sans-serif" fill="#1f2933" font-weight="600">Rolling Sharpe (7d)</text><text x="14" y="144" text-anchor="middle" font-size="11" font-family="system-ui, -apple-system, Segoe UI, Roboto, sans-serif" fill="#1f2933" transform="rotate(-90 14 144)">Sharpe</text><g><line x1="56" y1="40" x2="56" y2="248" stroke="#9aa5b1" stroke-width="1" /><g><line x1="56" y1="228.332" x2="704" y2="228.332" stroke="#e4e7eb" stroke-width="1" stroke-dasharray="2 2" /><line x1="52" y1="228.332" x2="56" y2="228.332" stroke="#9aa5b1" stroke-width="1" /><text x="48" y="232.332" text-anchor="end" font-size="11" font-family="system-ui, -apple-system, Segoe UI, Roboto, sans-serif" fill="#1f2933">-2.0</text></g><g><line x1="56" y1="186.166" x2="704" y2="186.166" stroke="#e4e7eb" stroke-width="1" stroke-dasharray="2 2" /><line x1="52" y1="186.166" x2="56" y2="186.166" stroke="#9aa5b1" stroke-width="1" /><text x="48" y="190.166" text-anchor="end" font-size="11" font-family="system-ui, -apple-system, Segoe UI, Roboto, sans-serif" fill="#1f2933">-1.0</text></g><g><line x1="56" y1="144" x2="704" y2="144" stroke="#e4e7eb" stroke-width="1" stroke-dasharray="2 2" /><line x1="52" y1="144" x2="56" y2="144" stroke="#9aa5b1" stroke-width="1" /><text x="48" y="148" text-anchor="end" font-size="11" font-family="system-ui, -apple-system, Segoe UI, Roboto, sans-serif" fill="#1f2933">0.0</text></g><g><line x1="56" y1="101.834" x2="704" y2="101.834" stroke="#e4e7eb" stroke-width="1" stroke-dasharray="2 2" /><line x1="52" y1="101.834" x2="56" y2="101.834" stroke="#9aa5b1" stroke-width="1" /><text x="48" y="105.834" text-anchor="end" font-size="11" font-family="system-ui, -apple-system, Segoe UI, Roboto, sans-serif" fill="#1f2933">1.0</text></g><g><line x1="56" y1="59.668" x2="704" y2="59.668" stroke="#e4e7eb" stroke-width="1" stroke-dasharray="2 2" /><line x1="52" y1="59.668" x2="56" y2="59.668" stroke="#9aa5b1" stroke-width="1" /><text x="48" y="63.668" text-anchor="end" font-size="11" font-family="system-ui, -apple-system, Segoe UI, Roboto, sans-serif" fill="#1f2933">2.0</text></g></g><g><line x1="56" y1="248" x2="704" y2="248" stroke="#9aa5b1" stroke-width="1" /><g><line x1="77.767" y1="248" x2="77.767" y2="252" stroke="#9aa5b1" stroke-width="1" /><text x="77.767" y="264" text-anchor="middle" font-size="11" font-family="system-ui, -apple-system, Segoe UI, Roboto, sans-serif" fill="#1f2933">11:30</text></g><g><line x1="257.434" y1="248" x2="257.434" y2="252" stroke="#9aa5b1" stroke-width="1" /><text x="257.434" y="264" text-anchor="middle" font-size="11" font-family="system-ui, -apple-system, Segoe UI, Roboto, sans-serif" fill="#1f2933">12:00</text></g><g><line x1="437.101" y1="248" x2="437.101" y2="252" stroke="#9aa5b1" stroke-width="1" /><text x="437.101" y="264" text-anchor="middle" font-size="11" font-family="system-ui, -apple-system, Segoe UI, Roboto, sans-serif" fill="#1f2933">12:30</text></g><g><line x1="616.768" y1="248" x2="616.768" y2="252" stroke="#9aa5b1" stroke-width="1" /><text x="616.768" y="264" text-anchor="middle" font-size="11" font-family="system-ui, -apple-system, Segoe UI, Roboto, sans-serif" fill="#1f2933">13:00</text></g></g><g><polyline points="56,40 59.095,40 62.089,40 65.906,40 74.367,40 77.46,144 80.885,144 83.98,144 86.544,144 89.638,144 93.419,144 101.915,144 105.009,144 110.998,144 117.087,144 120.182,144 123.276,144 126.37,144 129.803,144 132.458,144 135.453,144 138.547,144 141.542,144 144.536,144 147.631,144 168.991,144 172.085,144 178.174,144 184.263,144 193.346,144 205.723,144 207.11,144 208.718,144 214.806,144 217.801,144 218.518,144 220.895,144 223.989,144 227.084,144 227.613,144 230.514,144 233.617,144 236.167,144 236.911,144 237.191,40 245.349,40 248.444,40 251.538,40 254.633,40 263.716,40 276.092,40 279.187,40 283.781,40 285.276,40 288.27,40 291.364,40 294.359,40 303.542,40 309.73,40 315.719,40 318.813,40 321.908,40 328.096,40 334.085,40 337.18,40 337.438,40 343.368,40 358.341,40 361.435,40 364.529,40 368.124,40 370.617,40 373.612,40 376.706,40 379.701,40 388.784,40 403.658,40 406.75,40 407.241,40 409.845,40 410.386,40 415.933,40 422.023,40 425.117,40 428.211,40 431.305,40 434.399,40 440.488,40 443.482,40 458.464,247.875 468.037,247.875 484.407,247.875 487.402,247.875 496.584,247.875 499.579,247.875 502.573,247.875 520.939,247.875 526.928,247.875 530.022,247.875 533.017,247.875 536.011,247.875 542.2,247.875 551.183,247.875 552.268,247.875 554.277,248 560.266,248 560.908,247.32 566.455,247.32 569.549,247.32 573.057,247.32 575.638,247.32 581.826,247.32 582.111,247.32 587.815,247.32 593.904,247.32 596.999,247.32 598.967,247.32 603.087,247.32 606.181,247.32 612.27,247.32 615.264,247.32 621.453,247.32 624.591,247.32 634.327,247.32 636.725,247.32 639.819,247.32 645.908,247.32 648.407,240.19 655.19,240.19 661.279,240.19 664.373,240.19 667.468,240.19 673.457,240.19 676.551,240.19 682.54,240.19 688.628,240.19 691.723,240.19 694.817,240.19 697.912,240.19 703.826,202.667 704,202.667" fill="none" stroke="#2563eb" stroke-width="1.5" stroke-linejoin="round" /></g></svg>