<svg xmlns="http://www.w3.org/2000/svg" viewBox="0 0 720 280" width="720" height="280"><rect x="0" y="0" width="720" height="280" fill="#ffffff" /><text x="56" y="24" font-size="14" font-family="system-ui, -apple-system, Segoe UI, Roboto, sans-serif" fill="#1f2933" font-weight="600">Drawdown (24h)</text><text x="14" y="144" text-anchor="middle" font-size="11" font-family="system-ui, -apple-system, Segoe UI, Roboto, sans-serif" fill="#1f2933" transform="rotate(-90 14 144)">Underwater</text><g><line x1="56" y1="40" x2="56" y2="248" stroke="#9aa5b1" stroke-width="1" /><g><line x1="56" y1="197.52" x2="704" y2="197.52" stroke="#e4e7eb" stroke-width="1" stroke-dasharray="2 2" /><line x1="52" y1="197.52" x2="56" y2="197.52" stroke="#9aa5b1" stroke-width="1" /><text x="48" y="201.52" text-anchor="end" font-size="11" font-family="system-ui, -apple-system, Segoe UI, Roboto, sans-serif" fill="#1f2933">-20</text></g><g><line x1="56" y1="118.76" x2="704" y2="118.76" stroke="#e4e7eb" stroke-width="1" stroke-dasharray="2 2" /><line x1="52" y1="118.76" x2="56" y2="118.76" stroke="#9aa5b1" stroke-width="1" /><text x="48" y="122.76" text-anchor="end" font-size="11" font-family="system-ui, -apple-system, Segoe UI, Roboto, sans-serif" fill="#1f2933">-10</text></g><g><line x1="56" y1="40" x2="704" y2="40" stroke="#e4e7eb" stroke-width="1" stroke-dasharray="2 2" /><line x1="52" y1="40" x2="56" y2="40" stroke="#9aa5b1" stroke-width="1" /><text x="48" y="44" text-anchor="end" font-size="11" font-family="system-ui, -apple-system, Segoe UI, Roboto, sans-serif" fill="#1f2933">0</text></g></g><g><line x1="56" y1="248" x2="704" y2="248" stroke="#9aa5b1" stroke-width="1" /><g><line x1="155.135" y1="248" x2="155.135" y2="252" stroke="#9aa5b1" stroke-width="1" /><text x="155.135" y="264" text-anchor="middle" font-size="11" font-family="system-ui, -apple-system, Segoe UI, Roboto, sans-serif" fill="#1f2933">11:00</text></g><g><line x1="277.499" y1="248" x2="277.499" y2="252" stroke="#9aa5b1" stroke-width="1" /><text x="277.499" y="264" text-anchor="middle" font-size="11" font-family="system-ui, -apple-system, Segoe UI, Roboto, sans-serif" fill="#1f2933">11:30</text></g><g><line x1="399.863" y1="248" x2="399.863" y2="252" stroke="#9aa5b1" stroke-width="1" /><text x="399.863" y="264" text-anchor="middle" font-size="11" font-family="system-ui, -apple-system, Segoe UI, Roboto, sans-serif" fill="#1f2933">12:00</text></g><g><line x1="522.226" y1="248" x2="522.226" y2="252" stroke="#9aa5b1" stroke-width="1" /><text x="522.226" y="264" text-anchor="middle" font-size="11" font-family="system-ui, -apple-system, Segoe UI, Roboto, sans-serif" fill="#1f2933">12:30</text></g><g><line x1="644.59" y1="248" x2="644.59" y2="252" stroke="#9aa5b1" stroke-width="1" /><text x="644.59" y="264" text-anchor="middle" font-size="11" font-family="system-ui, -apple-system, Segoe UI, Roboto, sans-serif" fill="#1f2933">13:00</text></g></g><g><path d="M56 40 L56 40 L60.255 40 L61.93 40 L64.198 40 L65.647 40 L68.116 40 L70.156 40 L87.568 40 L101.97 40 L104.553 40 L106.661 40 L108.7 40 L110.807 40 L113.354 40 L114.886 40 L116.994 40 L117.368 40 L123.248 40 L127.395 40 L129.434 40 L137.857 40 L142.146 40 L144.539 40 L148.834 40 L169.086 40 L171.174 40 L173.281 40 L175.388 40 L178.348 40 L181.575 40 L182 40 L186.07 40 L187.829 40 L188.124 40 L194.015 40 L198.162 40 L200.201 40 L202.309 40 L206.455 40 L208.563 40 L210.67 40 L212.778 40 L218.964 40 L221.071 40 L223.11 40 L225.217 40 L227.257 40 L229.669 40 L231.404 40 L235.485 40 L237.658 40 L241.805 40 L245.952 40 L250.098 40 L252.206 40 L254.313 40 L255.795 40 L258.528 40 L260.635 40 L262.674 40 L264.782 40 L266.821 40 L269.421 40 L275.183 40 L277.29 40 L279.623 40 L281.73 40 L283.477 40 L285.584 40 L288.159 40 L293.946 40 L296.053 40 L300.131 40 L304.278 40 L306.386 40 L308.493 40 L310.601 40 L312.938 40 L314.747 40 L316.787 40 L318.894 40 L320.933 40 L322.973 40 L325.08 40 L339.628 40 L341.735 40 L345.882 40 L350.029 40 L356.215 40 L364.644 40 L365.589 40 L366.684 40 L370.831 40 L372.87 40 L373.359 40 L374.978 40 L377.085 40 L379.192 40 L379.553 40 L381.528 40 L383.642 40 L385.379 40 L385.885 40 L386.076 40 L391.632 40 L393.74 40 L395.847 40 L397.955 40 L404.141 40 L412.57 40 L414.678 40 L417.806 40 L418.825 40 L420.864 40 L422.971 40 L425.01 40 L431.265 40 L435.479 40 L439.558 40 L441.665 40 L443.773 40 L447.988 40 L452.067 40 L454.174 40 L454.35 40 L458.389 40 L468.586 40 L470.693 40 L472.801 40 L475.249 40 L476.947 40 L478.986 40 L481.094 40 L483.133 40 L489.319 40 L499.45 40 L501.556 40 L501.89 40 L503.663 40 L504.032 40 L507.81 40 L511.957 40 L514.064 40 L516.172 40 L518.279 40 L520.386 40 L524.533 40 L526.572 40 L536.776 248 L543.296 248 L554.444 248 L556.484 248 L562.738 248 L564.777 248 L566.816 248 L579.325 248 L583.404 248 L585.511 248 L587.551 248 L589.59 248 L593.805 248 L599.923 248 L600.662 248 L602.03 248 L606.109 248 L606.546 246.667 L610.324 246.667 L612.431 246.667 L614.82 246.667 L616.578 246.667 L620.793 246.667 L620.986 246.667 L624.871 246.667 L629.018 246.667 L631.126 246.667 L632.467 246.667 L635.273 246.667 L637.38 246.667 L641.526 246.667 L643.566 246.667 L647.781 246.667 L649.918 246.667 L656.548 246.667 L658.182 246.667 L660.289 246.667 L664.436 246.667 L666.138 233.029 L670.758 233.029 L674.904 233.029 L677.012 233.029 L679.119 233.029 L683.198 233.029 L685.306 233.029 L689.384 233.029 L693.531 233.029 L695.639 233.029 L697.746 233.029 L699.853 233.029 L703.882 164.49 L704 164.49 L704 40 Z" fill="#fca5a5" fill-opacity="0.6" stroke="none" /><polyline points="56,40 60.255,40 61.93,40 64.198,40 65.647,40 68.116,40 70.156,40 87.568,40 101.97,40 104.553,40 106.661,40 108.7,40 110.807,40 113.354,40 114.886,40 116.994,40 117.368,40 123.248,40 127.395,40 129.434,40 137.857,40 142.146,40 144.539,40 148.834,40 169.086,40 171.174,40 173.281,40 175.388,40 178.348,40 181.575,40 182,40 186.07,40 187.829,40 188.124,40 194.015,40 198.162,40 200.201,40 202.309,40 206.455,40 208.563,40 210.67,40 212.778,40 218.964,40 221.071,40 223.11,40 225.217,40 227.257,40 229.669,40 231.404,40 235.485,40 237.658,40 241.805,40 245.952,40 250.098,40 252.206,40 254.313,40 255.795,40 258.528,40 260.635,40 262.674,40 264.782,40 266.821,40 269.421,40 275.183,40 277.29,40 279.623,40 281.73,40 283.477,40 285.584,40 288.159,40 293.946,40 296.053,40 300.131,40 304.278,40 306.386,40 308.493,40 310.601,40 312.938,40 314.747,40 316.787,40 318.894,40 320.933,40 322.973,40 325.08,40 339.628,40 341.735,40 345.882,40 350.029,40 356.215,40 364.644,40 365.589,40 366.684,40 370.831,40 372.87,40 373.359,40 374.978,40 377.085,40 379.192,40 379.553,40 381.528,40 383.642,40 385.379,40 385.885,40 386.076,40 391.632,40 393.74,40 395.847,40 397.955,40 404.141,40 412.57,40 414.678,40 417.806,40 418.825,40 420.864,40 422.971,40 425.01,40 431.265,40 435.479,40 439.558,40 441.665,40 443.773,40 447.988,40 452.067,40 454.174,40 454.35,40 458.389,40 468.586,40 470.693,40 472.801,40 475.249,40 476.947,40 478.986,40 481.094,40 483.133,40 489.319,40 499.45,40 501.556,40 501.89,40 503.663,40 504.032,40 507.81,40 511.957,40 514.064,40 516.172,40 518.279,40 520.386,40 524.533,40 526.572,40 536.776,248 543.296,248 554.444,248 556.484,248 562.738,248 564.777,248 566.816,248 579.325,248 583.404,248 585.511,248 587.551,248 589.59,248 593.805,248 599.923,248 600.662,248 602.03,248 606.109,248 606.546,246.667 610.324,246.667 612.431,246.667 614.82,246.667 616.578,246.667 620.793,246.667 620.986,246.667 624.871,246.667 629.018,246.667 631.126,246.667 632.467,246.667 635.273,246.667 637.38,246.667 641.526,246.667 643.566,246.667 647.781,246.667 649.918,246.667 656.548,246.667 658.182,246.667 660.289,246.667 664.436,246.667 666.138,233.029 670.758,233.029 674.904,233.029 677.012,233.029 679.119,233.029 683.198,233.029 685.306,233.029 689.384,233.029 693.531,233.029 695.639,233.029 697.746,233.029 699.853,233.029 703.882,164.49 704,164.49" fill="none" stroke="#dc2626" stroke-width="1.5" stroke-linejoin="round" /></g></svg>