<svg xmlns="http://www.w3.org/2000/svg" viewBox="0 0 720 280" width="720" height="280"><rect x="0" y="0" width="720" height="280" fill="#ffffff" /><text x="56" y="24" font-size="14" font-family="system-ui, -apple-system, Segoe UI, Roboto, sans-serif" fill="#1f2933" font-weight="600">Fee vs Trade PnL by Hour (24h)</text><g><g transform="translate(56, 36)"><rect x="0" y="-8" width="10" height="10" fill="#2563eb" /><text x="14" y="1" font-size="11" font-family="system-ui, -apple-system, Segoe UI, Roboto, sans-serif" fill="#1f2933">tradePnl</text></g><g transform="translate(152, 36)"><rect x="0" y="-8" width="10" height="10" fill="#f97316" /><text x="14" y="1" font-size="11" font-family="system-ui, -apple-system, Segoe UI, Roboto, sans-serif" fill="#1f2933">fee</text></g></g><g><line x1="56" y1="56" x2="56" y2="248" stroke="#9aa5b1" stroke-width="1" /><g><line x1="56" y1="215.331" x2="704" y2="215.331" stroke="#e4e7eb" stroke-width="1" stroke-dasharray="2 2" /><line x1="52" y1="215.331" x2="56" y2="215.331" stroke="#9aa5b1" stroke-width="1" /><text x="48" y="219.331" text-anchor="end" font-size="11" font-family="system-ui, -apple-system, Segoe UI, Roboto, sans-serif" fill="#1f2933">-20</text></g><g><line x1="56" y1="162.978" x2="704" y2="162.978" stroke="#e4e7eb" stroke-width="1" stroke-dasharray="2 2" /><line x1="52" y1="162.978" x2="56" y2="162.978" stroke="#9aa5b1" stroke-width="1" /><text x="48" y="166.978" text-anchor="end" font-size="11" font-family="system-ui, -apple-system, Segoe UI, Roboto, sans-serif" fill="#1f2933">-10</text></g><g><line x1="56" y1="110.624" x2="704" y2="110.624" stroke="#e4e7eb" stroke-width="1" stroke-dasharray="2 2" /><line x1="52" y1="110.624" x2="56" y2="110.624" stroke="#9aa5b1" stroke-width="1" /><text x="48" y="114.624" text-anchor="end" font-size="11" font-family="system-ui, -apple-system, Segoe UI, Roboto, sans-serif" fill="#1f2933">0</text></g><g><line x1="56" y1="58.271" x2="704" y2="58.271" stroke="#e4e7eb" stroke-width="1" stroke-dasharray="2 2" /><line x1="52" y1="58.271" x2="56" y2="58.271" stroke="#9aa5b1" stroke-width="1" /><text x="48" y="62.271" text-anchor="end" font-size="11" font-family="system-ui, -apple-system, Segoe UI, Roboto, sans-serif" fill="#1f2933">10</text></g></g><g><line x1="56" y1="248" x2="704" y2="248" stroke="#9aa5b1" stroke-width="1" /><text x="69.5" y="264" text-anchor="middle" font-size="11" font-family="system-ui, -apple-system, Segoe UI, Roboto, sans-serif" fill="#1f2933">00</text><text x="150.5" y="264" text-anchor="middle" font-size="11" font-family="system-ui, -apple-system, Segoe UI, Roboto, sans-serif" fill="#1f2933">03</text><text x="231.5" y="264" text-anchor="middle" font-size="11" font-family="system-ui, -apple-system, Segoe UI, Roboto, sans-serif" fill="#1f2933">06</text><text x="312.5" y="264" text-anchor="middle" font-size="11" font-family="system-ui, -apple-system, Segoe UI, Roboto, sans-serif" fill="#1f2933">09</text><text x="393.5" y="264" text-anchor="middle" font-size="11" font-family="system-ui, -apple-system, Segoe UI, Roboto, sans-serif" fill="#1f2933">12</text><text x="474.5" y="264" text-anchor="middle" font-size="11" font-family="system-ui, -apple-system, Segoe UI, Roboto, sans-serif" fill="#1f2933">15</text><text x="555.5" y="264" text-anchor="middle" font-size="11" font-family="system-ui, -apple-system, Segoe UI, Roboto, sans-serif" fill="#1f2933">18</text><text x="636.5" y="264" text-anchor="middle" font-size="11" font-family="system-ui, -apple-system, Segoe UI, Roboto, sans-serif" fill="#1f2933">21</text></g><g><rect x="58.97" y="110.624" width="10.26" height="0" fill="#2563eb" opacity="0.9" /><rect x="85.97" y="110.624" width="10.26" height="0" fill="#2563eb" opacity="0.9" /><rect x="112.97" y="110.624" width="10.26" height="0" fill="#2563eb" opacity="0.9" /><rect x="139.97" y="110.624" width="10.26" height="0" fill="#2563eb" opacity="0.9" /><rect x="166.97" y="110.624" width="10.26" height="0" fill="#2563eb" opacity="0.9" /><rect x="193.97" y="110.624" width="10.26" height="0" fill="#2563eb" opacity="0.9" /><rect x="220.97" y="110.624" width="10.26" height="0" fill="#2563eb" opacity="0.9" /><rect x="247.97" y="110.624" width="10.26" height="0" fill="#2563eb" opacity="0.9" /><rect x="274.97" y="110.624" width="10.26" height="0" fill="#2563eb" opacity="0.9" /><rect x="301.97" y="110.624" width="10.26" height="0" fill="#2563eb" opacity="0.9" /><rect x="328.97" y="105.771" width="10.26" height="4.853" fill="#2563eb" opacity="0.9" /><rect x="355.97" y="110.461" width="10.26" height="0.163" fill="#2563eb" opacity="0.9" /><rect x="382.97" y="110.624" width="10.26" height="137.376" fill="#2563eb" opacity="0.9" /><rect x="409.97" y="56" width="10.26" height="54.624" fill="#2563eb" opacity="0.9" /><rect x="436.97" y="110.624" width="10.26" height="0" fill="#2563eb" opacity="0.9" /><rect x="463.97" y="110.624" width="10.26" height="0" fill="#2563eb" opacity="0.9" /><rect x="490.97" y="110.624" width="10.26" height="0" fill="#2563eb" opacity="0.9" /><rect x="517.97" y="110.624" width="10.26" height="0" fill="#2563eb" opacity="0.9" /><rect x="544.97" y="110.624" width="10.26" height="0" fill="#2563eb" opacity="0.9" /><rect x="571.97" y="110.624" width="10.26" height="0" fill="#2563eb" opacity="0.9" /><rect x="598.97" y="110.624" width="10.26" height="0" fill="#2563eb" opacity="0.9" /><rect x="625.97" y="110.624" width="10.26" height="0" fill="#2563eb" opacity="0.9" /><rect x="652.97" y="110.624" width="10.26" height="0" fill="#2563eb" opacity="0.9" /><rect x="679.97" y="110.624" width="10.26" height="0" fill="#2563eb" opacity="0.9" /><rect x="69.77" y="110.624" width="10.26" height="0" fill="#f97316" opacity="0.9" /><rect x="96.77" y="110.624" width="10.26" height="0" fill="#f97316" opacity="0.9" /><rect x="123.77" y="110.624" width="10.26" height="0" fill="#f97316" opacity="0.9" /><rect x="150.77" y="110.624" width="10.26" height="0" fill="#f97316" opacity="0.9" /><rect x="177.77" y="110.624" width="10.26" height="0" fill="#f97316" opacity="0.9" /><rect x="204.77" y="110.624" width="10.26" height="0" fill="#f97316" opacity="0.9" /><rect x="231.77" y="110.624" width="10.26" height="0" fill="#f97316" opacity="0.9" /><rect x="258.77" y="110.624" width="10.26" height="0" fill="#f97316" opacity="0.9" /><rect x="285.77" y="110.624" width="10.26" height="0" fill="#f97316" opacity="0.9" /><rect x="312.77" y="110.624" width="10.26" height="0" fill="#f97316" opacity="0.9" /><rect x="339.77" y="110.624" width="10.26" height="0" fill="#f97316" opacity="0.9" /><rect x="366.77" y="110.624" width="10.26" height="0" fill="#f97316" opacity="0.9" /><rect x="393.77" y="110.624" width="10.26" height="0" fill="#f97316" opacity="0.9" /><rect x="420.77" y="110.624" width="10.26" height="0" fill="#f97316" opacity="0.9" /><rect x="447.77" y="110.624" width="10.26" height="0" fill="#f97316" opacity="0.9" /><rect x="474.77" y="110.624" width="10.26" height="0" fill="#f97316" opacity="0.9" /><rect x="501.77" y="110.624" width="10.26" height="0" fill="#f97316" opacity="0.9" /><rect x="528.77" y="110.624" width="10.26" height="0" fill="#f97316" opacity="0.9" /><rect x="555.77" y="110.624" width="10.26" height="0" fill="#f97316" opacity="0.9" /><rect x="582.77" y="110.624" width="10.26" height="0" fill="#f97316" opacity="0.9" /><rect x="609.77" y="110.624" width="10.26" height="0" fill="#f97316" opacity="0.9" /><rect x="636.77" y="110.624" width="10.26" height="0" fill="#f97316" opacity="0.9" /><rect x="663.77" y="110.624" width="10.26" height="0" fill="#f97316" opacity="0.9" /><rect x="690.77" y="110.624" width="10.26" height="0" fill="#f97316" opacity="0.9" /></g></svg>