<svg xmlns="http://www.w3.org/2000/svg" viewBox="0 0 720 280" width="720" height="280"><rect x="0" y="0" width="720" height="280" fill="#ffffff" /><text x="56" y="24" font-size="14" font-family="system-ui, -apple-system, Segoe UI, Roboto, sans-serif" fill="#1f2933" font-weight="600">Markout 5s Distribution (24h)</text><g><line x1="56" y1="40" x2="56" y2="248" stroke="#9aa5b1" stroke-width="1" /><g><line x1="56" y1="248" x2="704" y2="248" stroke="#e4e7eb" stroke-width="1" stroke-dasharray="2 2" /><line x1="52" y1="248" x2="56" y2="248" stroke="#9aa5b1" stroke-width="1" /><text x="48" y="252" text-anchor="end" font-size="11" font-family="system-ui, -apple-system, Segoe UI, Roboto, sans-serif" fill="#1f2933">0</text></g><g><line x1="56" y1="186.095" x2="704" y2="186.095" stroke="#e4e7eb" stroke-width="1" stroke-dasharray="2 2" /><line x1="52" y1="186.095" x2="56" y2="186.095" stroke="#9aa5b1" stroke-width="1" /><text x="48" y="190.095" text-anchor="end" font-size="11" font-family="system-ui, -apple-system, Segoe UI, Roboto, sans-serif" fill="#1f2933">25</text></g><g><line x1="56" y1="124.19" x2="704" y2="124.19" stroke="#e4e7eb" stroke-width="1" stroke-dasharray="2 2" /><line x1="52" y1="124.19" x2="56" y2="124.19" stroke="#9aa5b1" stroke-width="1" /><text x="48" y="128.19" text-anchor="end" font-size="11" font-family="system-ui, -apple-system, Segoe UI, Roboto, sans-serif" fill="#1f2933">50</text></g><g><line x1="56" y1="62.286" x2="704" y2="62.286" stroke="#e4e7eb" stroke-width="1" stroke-dasharray="2 2" /><line x1="52" y1="62.286" x2="56" y2="62.286" stroke="#9aa5b1" stroke-width="1" /><text x="48" y="66.286" text-anchor="end" font-size="11" font-family="system-ui, -apple-system, Segoe UI, Roboto, sans-serif" fill="#1f2933">75</text></g></g><g><line x1="56" y1="248" x2="704" y2="248" stroke="#9aa5b1" stroke-width="1" /><g><line x1="174.288" y1="248" x2="174.288" y2="252" stroke="#9aa5b1" stroke-width="1" /><text x="174.288" y="264" text-anchor="middle" font-size="11" font-family="system-ui, -apple-system, Segoe UI, Roboto, sans-serif" fill="#1f2933">-4 bps</text></g><g><line x1="300.127" y1="248" x2="300.127" y2="252" stroke="#9aa5b1" stroke-width="1" /><text x="300.127" y="264" text-anchor="middle" font-size="11" font-family="system-ui, -apple-system, Segoe UI, Roboto, sans-serif" fill="#1f2933">-2 bps</text></g><g><line x1="425.967" y1="248" x2="425.967" y2="252" stroke="#9aa5b1" stroke-width="1" /><text x="425.967" y="264" text-anchor="middle" font-size="11" font-family="system-ui, -apple-system, Segoe UI, Roboto, sans-serif" fill="#1f2933">0 bps</text></g><g><line x1="551.807" y1="248" x2="551.807" y2="252" stroke="#9aa5b1" stroke-width="1" /><text x="551.807" y="264" text-anchor="middle" font-size="11" font-family="system-ui, -apple-system, Segoe UI, Roboto, sans-serif" fill="#1f2933">2 bps</text></g><g><line x1="677.647" y1="248" x2="677.647" y2="252" stroke="#9aa5b1" stroke-width="1" /><text x="677.647" y="264" text-anchor="middle" font-size="11" font-family="system-ui, -apple-system, Segoe UI, Roboto, sans-serif" fill="#1f2933">4 bps</text></g></g><g><rect x="56" y="245.524" width="20.6" height="2.476" fill="#2563eb" opacity="0.85" /><rect x="77.6" y="248" width="20.6" height="0" fill="#2563eb" opacity="0.85" /><rect x="99.2" y="248" width="20.6" height="0" fill="#2563eb" opacity="0.85" /><rect x="120.8" y="248" width="20.6" height="0" fill="#2563eb" opacity="0.85" /><rect x="142.4" y="245.524" width="20.6" height="2.476" fill="#2563eb" opacity="0.85" /><rect x="164" y="245.524" width="20.6" height="2.476" fill="#2563eb" opacity="0.85" /><rect x="185.6" y="248" width="20.6" height="0" fill="#2563eb" opacity="0.85" /><rect x="207.2" y="248" width="20.6" height="0" fill="#2563eb" opacity="0.85" /><rect x="228.8" y="243.048" width="20.6" height="4.952" fill="#2563eb" opacity="0.85" /><rect x="250.4" y="248" width="20.6" height="0" fill="#2563eb" opacity="0.85" /><rect x="272" y="243.048" width="20.6" height="4.952" fill="#2563eb" opacity="0.85" /><rect x="293.6" y="240.571" width="20.6" height="7.429" fill="#2563eb" opacity="0.85" /><rect x="315.2" y="230.667" width="20.6" height="17.333" fill="#2563eb" opacity="0.85" /><rect x="336.8" y="233.143" width="20.6" height="14.857" fill="#2563eb" opacity="0.85" /><rect x="358.4" y="228.19" width="20.6" height="19.81" fill="#2563eb" opacity="0.85" /><rect x="380" y="200.952" width="20.6" height="47.048" fill="#2563eb" opacity="0.85" /><rect x="401.6" y="183.619" width="20.6" height="64.381" fill="#2563eb" opacity="0.85" /><rect x="423.2" y="40" width="20.6" height="208" fill="#2563eb" opacity="0.85" /><rect x="444.8" y="218.286" width="20.6" height="29.714" fill="#2563eb" opacity="0.85" /><rect x="466.4" y="228.19" width="20.6" height="19.81" fill="#2563eb" opacity="0.85" /><rect x="488" y="230.667" width="20.6" height="17.333" fill="#2563eb" opacity="0.85" /><rect x="509.6" y="245.524" width="20.6" height="2.476" fill="#2563eb" opacity="0.85" /><rect x="531.2" y="235.619" width="20.6" height="12.381" fill="#2563eb" opacity="0.85" /><rect x="552.8" y="243.048" width="20.6" height="4.952" fill="#2563eb" opacity="0.85" /><rect x="574.4" y="245.524" width="20.6" height="2.476" fill="#2563eb" opacity="0.85" /><rect x="596" y="248" width="20.6" height="0" fill="#2563eb" opacity="0.85" /><rect x="617.6" y="245.524" width="20.6" height="2.476" fill="#2563eb" opacity="0.85" /><rect x="639.2" y="245.524" width="20.6" height="2.476" fill="#2563eb" opacity="0.85" /><rect x="660.8" y="248" width="20.6" height="0" fill="#2563eb" opacity="0.85" /><rect x="682.4" y="245.524" width="20.6" height="2.476" fill="#2563eb" opacity="0.85" /></g></svg>