<svg xmlns="http://www.w3.org/2000/svg" viewBox="0 0 720 280" width="720" height="280"><rect x="0" y="0" width="720" height="280" fill="#ffffff" /><text x="56" y="24" font-size="14" font-family="system-ui, -apple-system, Segoe UI, Roboto, sans-serif" fill="#1f2933" font-weight="600">Markout 30s Distribution (24h)</text><g><line x1="56" y1="40" x2="56" y2="248" stroke="#9aa5b1" stroke-width="1" /><g><line x1="56" y1="248" x2="704" y2="248" stroke="#e4e7eb" stroke-width="1" stroke-dasharray="2 2" /><line x1="52" y1="248" x2="56" y2="248" stroke="#9aa5b1" stroke-width="1" /><text x="48" y="252" text-anchor="end" font-size="11" font-family="system-ui, -apple-system, Segoe UI, Roboto, sans-serif" fill="#1f2933">0</text></g><g><line x1="56" y1="153.455" x2="704" y2="153.455" stroke="#e4e7eb" stroke-width="1" stroke-dasharray="2 2" /><line x1="52" y1="153.455" x2="56" y2="153.455" stroke="#9aa5b1" stroke-width="1" /><text x="48" y="157.455" text-anchor="end" font-size="11" font-family="system-ui, -apple-system, Segoe UI, Roboto, sans-serif" fill="#1f2933">10</text></g><g><line x1="56" y1="58.909" x2="704" y2="58.909" stroke="#e4e7eb" stroke-width="1" stroke-dasharray="2 2" /><line x1="52" y1="58.909" x2="56" y2="58.909" stroke="#9aa5b1" stroke-width="1" /><text x="48" y="62.909" text-anchor="end" font-size="11" font-family="system-ui, -apple-system, Segoe UI, Roboto, sans-serif" fill="#1f2933">20</text></g></g><g><line x1="56" y1="248" x2="704" y2="248" stroke="#9aa5b1" stroke-width="1" /><g><line x1="214.481" y1="248" x2="214.481" y2="252" stroke="#9aa5b1" stroke-width="1" /><text x="214.481" y="264" text-anchor="middle" font-size="11" font-family="system-ui, -apple-system, Segoe UI, Roboto, sans-serif" fill="#1f2933">-5 bps</text></g><g><line x1="398.54" y1="248" x2="398.54" y2="252" stroke="#9aa5b1" stroke-width="1" /><text x="398.54" y="264" text-anchor="middle" font-size="11" font-family="system-ui, -apple-system, Segoe UI, Roboto, sans-serif" fill="#1f2933">0 bps</text></g><g><line x1="582.599" y1="248" x2="582.599" y2="252" stroke="#9aa5b1" stroke-width="1" /><text x="582.599" y="264" text-anchor="middle" font-size="11" font-family="system-ui, -apple-system, Segoe UI, Roboto, sans-serif" fill="#1f2933">5 bps</text></g></g><g><rect x="56" y="229.091" width="20.6" height="18.909" fill="#2563eb" opacity="0.85" /><rect x="77.6" y="248" width="20.6" height="0" fill="#2563eb" opacity="0.85" /><rect x="99.2" y="238.545" width="20.6" height="9.455" fill="#2563eb" opacity="0.85" /><rect x="120.8" y="248" width="20.6" height="0" fill="#2563eb" opacity="0.85" /><rect x="142.4" y="248" width="20.6" height="0" fill="#2563eb" opacity="0.85" /><rect x="164" y="238.545" width="20.6" height="9.455" fill="#2563eb" opacity="0.85" /><rect x="185.6" y="248" width="20.6" height="0" fill="#2563eb" opacity="0.85" /><rect x="207.2" y="219.636" width="20.6" height="28.364" fill="#2563eb" opacity="0.85" /><rect x="228.8" y="191.273" width="20.6" height="56.727" fill="#2563eb" opacity="0.85" /><rect x="250.4" y="210.182" width="20.6" height="37.818" fill="#2563eb" opacity="0.85" /><rect x="272" y="153.455" width="20.6" height="94.545" fill="#2563eb" opacity="0.85" /><rect x="293.6" y="144" width="20.6" height="104" fill="#2563eb" opacity="0.85" /><rect x="315.2" y="125.091" width="20.6" height="122.909" fill="#2563eb" opacity="0.85" /><rect x="336.8" y="115.636" width="20.6" height="132.364" fill="#2563eb" opacity="0.85" /><rect x="358.4" y="87.273" width="20.6" height="160.727" fill="#2563eb" opacity="0.85" /><rect x="380" y="40" width="20.6" height="208" fill="#2563eb" opacity="0.85" /><rect x="401.6" y="106.182" width="20.6" height="141.818" fill="#2563eb" opacity="0.85" /><rect x="423.2" y="96.727" width="20.6" height="151.273" fill="#2563eb" opacity="0.85" /><rect x="444.8" y="106.182" width="20.6" height="141.818" fill="#2563eb" opacity="0.85" /><rect x="466.4" y="68.364" width="20.6" height="179.636" fill="#2563eb" opacity="0.85" /><rect x="488" y="200.727" width="20.6" height="47.273" fill="#2563eb" opacity="0.85" /><rect x="509.6" y="162.909" width="20.6" height="85.091" fill="#2563eb" opacity="0.85" /><rect x="531.2" y="191.273" width="20.6" height="56.727" fill="#2563eb" opacity="0.85" /><rect x="552.8" y="229.091" width="20.6" height="18.909" fill="#2563eb" opacity="0.85" /><rect x="574.4" y="210.182" width="20.6" height="37.818" fill="#2563eb" opacity="0.85" /><rect x="596" y="229.091" width="20.6" height="18.909" fill="#2563eb" opacity="0.85" /><rect x="617.6" y="248" width="20.6" height="0" fill="#2563eb" opacity="0.85" /><rect x="639.2" y="238.545" width="20.6" height="9.455" fill="#2563eb" opacity="0.85" /><rect x="660.8" y="248" width="20.6" height="0" fill="#2563eb" opacity="0.85" /><rect x="682.4" y="238.545" width="20.6" height="9.455" fill="#2563eb" opacity="0.85" /></g></svg>