<svg xmlns="http://www.w3.org/2000/svg" viewBox="0 0 720 280" width="720" height="280"><rect x="0" y="0" width="720" height="280" fill="#ffffff" /><text x="56" y="24" font-size="14" font-family="system-ui, -apple-system, Segoe UI, Roboto, sans-serif" fill="#1f2933" font-weight="600">Fill Price vs Mid (24h)</text><g><line x1="56" y1="40" x2="56" y2="248" stroke="#9aa5b1" stroke-width="1" /><g><line x1="56" y1="244.982" x2="704" y2="244.982" stroke="#e4e7eb" stroke-width="1" stroke-dasharray="2 2" /><line x1="52" y1="244.982" x2="56" y2="244.982" stroke="#9aa5b1" stroke-width="1" /><text x="48" y="248.982" text-anchor="end" font-size="11" font-family="system-ui, -apple-system, Segoe UI, Roboto, sans-serif" fill="#1f2933">80700</text></g><g><line x1="56" y1="200.907" x2="704" y2="200.907" stroke="#e4e7eb" stroke-width="1" stroke-dasharray="2 2" /><line x1="52" y1="200.907" x2="56" y2="200.907" stroke="#9aa5b1" stroke-width="1" /><text x="48" y="204.907" text-anchor="end" font-size="11" font-family="system-ui, -apple-system, Segoe UI, Roboto, sans-serif" fill="#1f2933">80800</text></g><g><line x1="56" y1="156.833" x2="704" y2="156.833" stroke="#e4e7eb" stroke-width="1" stroke-dasharray="2 2" /><line x1="52" y1="156.833" x2="56" y2="156.833" stroke="#9aa5b1" stroke-width="1" /><text x="48" y="160.833" text-anchor="end" font-size="11" font-family="system-ui, -apple-system, Segoe UI, Roboto, sans-serif" fill="#1f2933">80900</text></g><g><line x1="56" y1="112.758" x2="704" y2="112.758" stroke="#e4e7eb" stroke-width="1" stroke-dasharray="2 2" /><line x1="52" y1="112.758" x2="56" y2="112.758" stroke="#9aa5b1" stroke-width="1" /><text x="48" y="116.758" text-anchor="end" font-size="11" font-family="system-ui, -apple-system, Segoe UI, Roboto, sans-serif" fill="#1f2933">81000</text></g><g><line x1="56" y1="68.683" x2="704" y2="68.683" stroke="#e4e7eb" stroke-width="1" stroke-dasharray="2 2" /><line x1="52" y1="68.683" x2="56" y2="68.683" stroke="#9aa5b1" stroke-width="1" /><text x="48" y="72.683" text-anchor="end" font-size="11" font-family="system-ui, -apple-system, Segoe UI, Roboto, sans-serif" fill="#1f2933">81100</text></g></g><g><line x1="56" y1="248" x2="704" y2="248" stroke="#9aa5b1" stroke-width="1" /><g><line x1="77.281" y1="248" x2="77.281" y2="252" stroke="#9aa5b1" stroke-width="1" /><text x="77.281" y="264" text-anchor="middle" font-size="11" font-family="system-ui, -apple-system, Segoe UI, Roboto, sans-serif" fill="#1f2933">80700</text></g><g><line x1="221.562" y1="248" x2="221.562" y2="252" stroke="#9aa5b1" stroke-width="1" /><text x="221.562" y="264" text-anchor="middle" font-size="11" font-family="system-ui, -apple-system, Segoe UI, Roboto, sans-serif" fill="#1f2933">80800</text></g><g><line x1="365.842" y1="248" x2="365.842" y2="252" stroke="#9aa5b1" stroke-width="1" /><text x="365.842" y="264" text-anchor="middle" font-size="11" font-family="system-ui, -apple-system, Segoe UI, Roboto, sans-serif" fill="#1f2933">80900</text></g><g><line x1="510.123" y1="248" x2="510.123" y2="252" stroke="#9aa5b1" stroke-width="1" /><text x="510.123" y="264" text-anchor="middle" font-size="11" font-family="system-ui, -apple-system, Segoe UI, Roboto, sans-serif" fill="#1f2933">81000</text></g><g><line x1="654.404" y1="248" x2="654.404" y2="252" stroke="#9aa5b1" stroke-width="1" /><text x="654.404" y="264" text-anchor="middle" font-size="11" font-family="system-ui, -apple-system, Segoe UI, Roboto, sans-serif" fill="#1f2933">81100</text></g></g><line x1="67.401" y1="248" x2="704" y2="53.533" stroke="#9aa5b1" stroke-width="1" stroke-dasharray="3 3" /><g><circle cx="56" cy="248" r="2.5" fill="#2563eb" fill-opacity="0.55" /><circle cx="127.239" cy="221.659" r="2.5" fill="#2563eb" fill-opacity="0.55" /><circle cx="91.529" cy="221.53" r="2.5" fill="#2563eb" fill-opacity="0.55" /><circle cx="116.057" cy="223.93" r="2.5" fill="#2563eb" fill-opacity="0.55" /><circle cx="89.304" cy="240.716" r="2.5" fill="#2563eb" fill-opacity="0.55" /><circle cx="112.269" cy="226.178" r="2.5" fill="#2563eb" fill-opacity="0.55" /><circle cx="141.667" cy="217.251" r="2.5" fill="#2563eb" fill-opacity="0.55" /><circle cx="276.028" cy="181.984" r="2.5" fill="#2563eb" fill-opacity="0.55" /><circle cx="211.823" cy="175.66" r="2.5" fill="#2563eb" fill-opacity="0.55" /><circle cx="221.742" cy="190.393" r="2.5" fill="#2563eb" fill-opacity="0.55" /><circle cx="242.122" cy="185.309" r="2.5" fill="#2563eb" fill-opacity="0.55" /><circle cx="235.449" cy="182.913" r="2.5" fill="#2563eb" fill-opacity="0.55" /><circle cx="204.789" cy="196.715" r="2.5" fill="#2563eb" fill-opacity="0.55" /><circle cx="200.1" cy="196.928" r="2.5" fill="#2563eb" fill-opacity="0.55" /><circle cx="182.426" cy="203.571" r="2.5" fill="#2563eb" fill-opacity="0.55" /><circle cx="198.657" cy="190.57" r="2.5" fill="#2563eb" fill-opacity="0.55" /><circle cx="198.837" cy="198.502" r="2.5" fill="#2563eb" fill-opacity="0.55" /><circle cx="231.121" cy="186.169" r="2.5" fill="#2563eb" fill-opacity="0.55" /><circle cx="199.198" cy="199.385" r="2.5" fill="#2563eb" fill-opacity="0.55" /><circle cx="189.279" cy="201.584" r="2.5" fill="#2563eb" fill-opacity="0.55" /><circle cx="207.314" cy="195.911" r="2.5" fill="#2563eb" fill-opacity="0.55" /><circle cx="237.974" cy="186.52" r="2.5" fill="#2563eb" fill-opacity="0.55" /><circle cx="226.972" cy="189.029" r="2.5" fill="#2563eb" fill-opacity="0.55" /><circle cx="219.036" cy="192.331" r="2.5" fill="#2563eb" fill-opacity="0.55" /><circle cx="368.187" cy="144.877" r="2.5" fill="#2563eb" fill-opacity="0.55" /><circle cx="352.677" cy="136.24" r="2.5" fill="#2563eb" fill-opacity="0.55" /><circle cx="394.879" cy="138.589" r="2.5" fill="#2563eb" fill-opacity="0.55" /><circle cx="407.503" cy="115.197" r="2.5" fill="#2563eb" fill-opacity="0.55" /><circle cx="473.151" cy="124.654" r="2.5" fill="#2563eb" fill-opacity="0.55" /><circle cx="508.139" cy="101.432" r="2.5" fill="#2563eb" fill-opacity="0.55" /><circle cx="490.465" cy="110.36" r="2.5" fill="#2563eb" fill-opacity="0.55" /><circle cx="370.532" cy="146.078" r="2.5" fill="#2563eb" fill-opacity="0.55" /><circle cx="360.157" cy="146.058" r="2.5" fill="#2563eb" fill-opacity="0.55" /><circle cx="346.545" cy="145.169" r="2.5" fill="#2563eb" fill-opacity="0.55" /><circle cx="370.712" cy="146.036" r="2.5" fill="#2563eb" fill-opacity="0.55" /><circle cx="431.31" cy="127.519" r="2.5" fill="#2563eb" fill-opacity="0.55" /><circle cx="354.12" cy="151.109" r="2.5" fill="#2563eb" fill-opacity="0.55" /><circle cx="382.254" cy="148.489" r="2.5" fill="#2563eb" fill-opacity="0.55" /><circle cx="358.809" cy="149.673" r="2.5" fill="#2563eb" fill-opacity="0.55" /><circle cx="360.252" cy="144.401" r="2.5" fill="#2563eb" fill-opacity="0.55" /><circle cx="351.595" cy="151.857" r="2.5" fill="#2563eb" fill-opacity="0.55" /><circle cx="381.172" cy="142.788" r="2.5" fill="#2563eb" fill-opacity="0.55" /><circle cx="356.104" cy="150.401" r="2.5" fill="#2563eb" fill-opacity="0.55" /><circle cx="345.018" cy="151.014" r="2.5" fill="#2563eb" fill-opacity="0.55" /><circle cx="358.448" cy="150.559" r="2.5" fill="#2563eb" fill-opacity="0.55" /><circle cx="322.919" cy="160.647" r="2.5" fill="#2563eb" fill-opacity="0.55" /><circle cx="258.895" cy="180.152" r="2.5" fill="#2563eb" fill-opacity="0.55" /><circle cx="322.378" cy="162.096" r="2.5" fill="#2563eb" fill-opacity="0.55" /><circle cx="353.939" cy="151" r="2.5" fill="#2563eb" fill-opacity="0.55" /><circle cx="305.786" cy="175.22" r="2.5" fill="#2563eb" fill-opacity="0.55" /><circle cx="299.293" cy="167.807" r="2.5" fill="#2563eb" fill-opacity="0.55" /><circle cx="293.883" cy="169.495" r="2.5" fill="#2563eb" fill-opacity="0.55" /><circle cx="327.428" cy="159.213" r="2.5" fill="#2563eb" fill-opacity="0.55" /><circle cx="372.515" cy="142.183" r="2.5" fill="#2563eb" fill-opacity="0.55" /><circle cx="366.203" cy="147.381" r="2.5" fill="#2563eb" fill-opacity="0.55" /><circle cx="406.061" cy="135.165" r="2.5" fill="#2563eb" fill-opacity="0.55" /><circle cx="437.802" cy="131.23" r="2.5" fill="#2563eb" fill-opacity="0.55" /><circle cx="433.474" cy="126.806" r="2.5" fill="#2563eb" fill-opacity="0.55" /><circle cx="405.7" cy="134.143" r="2.5" fill="#2563eb" fill-opacity="0.55" /><circle cx="366.384" cy="147.33" r="2.5" fill="#2563eb" fill-opacity="0.55" /><circle cx="340.233" cy="155.36" r="2.5" fill="#2563eb" fill-opacity="0.55" /><circle cx="318.41" cy="161.957" r="2.5" fill="#2563eb" fill-opacity="0.55" /><circle cx="350.332" cy="129.265" r="2.5" fill="#2563eb" fill-opacity="0.55" /><circle cx="304.704" cy="166.151" r="2.5" fill="#2563eb" fill-opacity="0.55" /><circle cx="284.865" cy="172.213" r="2.5" fill="#2563eb" fill-opacity="0.55" /><circle cx="302.179" cy="166.871" r="2.5" fill="#2563eb" fill-opacity="0.55" /><circle cx="305.786" cy="168.524" r="2.5" fill="#2563eb" fill-opacity="0.55" /><circle cx="353.398" cy="131.635" r="2.5" fill="#2563eb" fill-opacity="0.55" /><circle cx="366.925" cy="136.318" r="2.5" fill="#2563eb" fill-opacity="0.55" /><circle cx="362.055" cy="148.609" r="2.5" fill="#2563eb" fill-opacity="0.55" /><circle cx="377.385" cy="148.518" r="2.5" fill="#2563eb" fill-opacity="0.55" /><circle cx="412.914" cy="133.113" r="2.5" fill="#2563eb" fill-opacity="0.55" /><circle cx="390.009" cy="137.33" r="2.5" fill="#2563eb" fill-opacity="0.55" /><circle cx="389.829" cy="140.156" r="2.5" fill="#2563eb" fill-opacity="0.55" /><circle cx="354.12" cy="152.336" r="2.5" fill="#2563eb" fill-opacity="0.55" /><circle cx="341.856" cy="154.804" r="2.5" fill="#2563eb" fill-opacity="0.55" /><circle cx="363.318" cy="148.315" r="2.5" fill="#2563eb" fill-opacity="0.55" /><circle cx="389.288" cy="140.198" r="2.5" fill="#2563eb" fill-opacity="0.55" /><circle cx="377.565" cy="143.893" r="2.5" fill="#2563eb" fill-opacity="0.55" /><circle cx="418.144" cy="130.279" r="2.5" fill="#2563eb" fill-opacity="0.55" /><circle cx="426.981" cy="128.82" r="2.5" fill="#2563eb" fill-opacity="0.55" /><circle cx="433.474" cy="127.199" r="2.5" fill="#2563eb" fill-opacity="0.55" /><circle cx="449.886" cy="111.426" r="2.5" fill="#2563eb" fill-opacity="0.55" /><circle cx="429.903" cy="127.879" r="2.5" fill="#2563eb" fill-opacity="0.55" /><circle cx="423.735" cy="129.769" r="2.5" fill="#2563eb" fill-opacity="0.55" /><circle cx="424.096" cy="129.687" r="2.5" fill="#2563eb" fill-opacity="0.55" /><circle cx="412.553" cy="133.167" r="2.5" fill="#2563eb" fill-opacity="0.55" /><circle cx="380.451" cy="142.994" r="2.5" fill="#2563eb" fill-opacity="0.55" /><circle cx="343.118" cy="154.356" r="2.5" fill="#2563eb" fill-opacity="0.55" /><circle cx="156.275" cy="209.223" r="2.5" fill="#2563eb" fill-opacity="0.55" /><circle cx="202.625" cy="201.845" r="2.5" fill="#2563eb" fill-opacity="0.55" /><circle cx="183.147" cy="203.287" r="2.5" fill="#2563eb" fill-opacity="0.55" /><circle cx="198.297" cy="199.354" r="2.5" fill="#2563eb" fill-opacity="0.55" /><circle cx="203.707" cy="197.003" r="2.5" fill="#2563eb" fill-opacity="0.55" /><circle cx="180.983" cy="200.374" r="2.5" fill="#2563eb" fill-opacity="0.55" /><circle cx="180.983" cy="194.009" r="2.5" fill="#2563eb" fill-opacity="0.55" /><circle cx="250.057" cy="182.802" r="2.5" fill="#2563eb" fill-opacity="0.55" /><circle cx="221.742" cy="191.509" r="2.5" fill="#2563eb" fill-opacity="0.55" /><circle cx="250.238" cy="156.75" r="2.5" fill="#2563eb" fill-opacity="0.55" /><circle cx="303.441" cy="140.274" r="2.5" fill="#2563eb" fill-opacity="0.55" /><circle cx="325.443" cy="133.197" r="2.5" fill="#2563eb" fill-opacity="0.55" /><circle cx="303.441" cy="166.596" r="2.5" fill="#2563eb" fill-opacity="0.55" /><circle cx="341.662" cy="162.107" r="2.5" fill="#2563eb" fill-opacity="0.55" /><circle cx="290.095" cy="186.477" r="2.5" fill="#2563eb" fill-opacity="0.55" /><circle cx="271.519" cy="176.264" r="2.5" fill="#2563eb" fill-opacity="0.55" /><circle cx="271.519" cy="176.276" r="2.5" fill="#2563eb" fill-opacity="0.55" /><circle cx="271.699" cy="176.215" r="2.5" fill="#2563eb" fill-opacity="0.55" /><circle cx="253.123" cy="178.386" r="2.5" fill="#2563eb" fill-opacity="0.55" /><circle cx="265.567" cy="181.75" r="2.5" fill="#2563eb" fill-opacity="0.55" /><circle cx="320.935" cy="160.149" r="2.5" fill="#2563eb" fill-opacity="0.55" /><circle cx="429.506" cy="117.021" r="2.5" fill="#2563eb" fill-opacity="0.55" /><circle cx="435.097" cy="138.34" r="2.5" fill="#2563eb" fill-opacity="0.55" /><circle cx="452.55" cy="104.822" r="2.5" fill="#2563eb" fill-opacity="0.55" /><circle cx="438.884" cy="125.12" r="2.5" fill="#2563eb" fill-opacity="0.55" /><circle cx="397.945" cy="138.892" r="2.5" fill="#2563eb" fill-opacity="0.55" /><circle cx="411.832" cy="133.47" r="2.5" fill="#2563eb" fill-opacity="0.55" /><circle cx="354.48" cy="150.97" r="2.5" fill="#2563eb" fill-opacity="0.55" /><circle cx="382.074" cy="142.197" r="2.5" fill="#2563eb" fill-opacity="0.55" /><circle cx="373.237" cy="145.191" r="2.5" fill="#2563eb" fill-opacity="0.55" /><circle cx="461.969" cy="98.398" r="2.5" fill="#2563eb" fill-opacity="0.55" /><circle cx="491.186" cy="105.628" r="2.5" fill="#2563eb" fill-opacity="0.55" /><circle cx="520.403" cy="106.142" r="2.5" fill="#2563eb" fill-opacity="0.55" /><circle cx="533.388" cy="100.348" r="2.5" fill="#2563eb" fill-opacity="0.55" /><circle cx="546.374" cy="92.286" r="2.5" fill="#2563eb" fill-opacity="0.55" /><circle cx="572.669" cy="92.254" r="2.5" fill="#2563eb" fill-opacity="0.55" /><circle cx="546.554" cy="94.087" r="2.5" fill="#2563eb" fill-opacity="0.55" /><circle cx="531.224" cy="83.937" r="2.5" fill="#2563eb" fill-opacity="0.55" /><circle cx="497.885" cy="102.927" r="2.5" fill="#2563eb" fill-opacity="0.55" /><circle cx="464.134" cy="117.407" r="2.5" fill="#2563eb" fill-opacity="0.55" /><circle cx="527.978" cy="108.635" r="2.5" fill="#2563eb" fill-opacity="0.55" /><circle cx="502.909" cy="103.341" r="2.5" fill="#2563eb" fill-opacity="0.55" /><circle cx="464.134" cy="117.449" r="2.5" fill="#2563eb" fill-opacity="0.55" /><circle cx="430.588" cy="124.012" r="2.5" fill="#2563eb" fill-opacity="0.55" /><circle cx="443.033" cy="116.545" r="2.5" fill="#2563eb" fill-opacity="0.55" /><circle cx="419.046" cy="128.16" r="2.5" fill="#2563eb" fill-opacity="0.55" /><circle cx="428.063" cy="127.926" r="2.5" fill="#2563eb" fill-opacity="0.55" /><circle cx="466.298" cy="121.022" r="2.5" fill="#2563eb" fill-opacity="0.55" /><circle cx="466.477" cy="116.778" r="2.5" fill="#2563eb" fill-opacity="0.55" /><circle cx="503.27" cy="80.228" r="2.5" fill="#2563eb" fill-opacity="0.55" /><circle cx="571.983" cy="84.781" r="2.5" fill="#2563eb" fill-opacity="0.55" /><circle cx="532.847" cy="96.479" r="2.5" fill="#2563eb" fill-opacity="0.55" /><circle cx="516.435" cy="100.407" r="2.5" fill="#2563eb" fill-opacity="0.55" /><circle cx="513.189" cy="102.401" r="2.5" fill="#2563eb" fill-opacity="0.55" /><circle cx="516.435" cy="101.459" r="2.5" fill="#2563eb" fill-opacity="0.55" /><circle cx="496.957" cy="96.596" r="2.5" fill="#2563eb" fill-opacity="0.55" /><circle cx="515.353" cy="103.459" r="2.5" fill="#2563eb" fill-opacity="0.55" /><circle cx="553.948" cy="87.956" r="2.5" fill="#2563eb" fill-opacity="0.55" /><circle cx="509.943" cy="103.422" r="2.5" fill="#2563eb" fill-opacity="0.55" /><circle cx="531.945" cy="105.816" r="2.5" fill="#2563eb" fill-opacity="0.55" /><circle cx="498.22" cy="106.93" r="2.5" fill="#2563eb" fill-opacity="0.55" /><circle cx="473.873" cy="115.746" r="2.5" fill="#2563eb" fill-opacity="0.55" /><circle cx="484.333" cy="112.365" r="2.5" fill="#2563eb" fill-opacity="0.55" /><circle cx="537.356" cy="95.585" r="2.5" fill="#2563eb" fill-opacity="0.55" /><circle cx="529.601" cy="96.162" r="2.5" fill="#2563eb" fill-opacity="0.55" /><circle cx="489.022" cy="109.134" r="2.5" fill="#2563eb" fill-opacity="0.55" /><circle cx="536.274" cy="95.393" r="2.5" fill="#2563eb" fill-opacity="0.55" /><circle cx="553.227" cy="90.199" r="2.5" fill="#2563eb" fill-opacity="0.55" /><circle cx="605.168" cy="70.361" r="2.5" fill="#2563eb" fill-opacity="0.55" /><circle cx="588.576" cy="79.434" r="2.5" fill="#2563eb" fill-opacity="0.55" /><circle cx="573.787" cy="83.925" r="2.5" fill="#2563eb" fill-opacity="0.55" /><circle cx="522.748" cy="99.544" r="2.5" fill="#2563eb" fill-opacity="0.55" /><circle cx="473.632" cy="113.432" r="2.5" fill="#2563eb" fill-opacity="0.55" /><circle cx="500.138" cy="116.799" r="2.5" fill="#2563eb" fill-opacity="0.55" /><circle cx="522.207" cy="71.102" r="2.5" fill="#2563eb" fill-opacity="0.55" /><circle cx="575.59" cy="81.822" r="2.5" fill="#2563eb" fill-opacity="0.55" /><circle cx="538.979" cy="103.53" r="2.5" fill="#2563eb" fill-opacity="0.55" /><circle cx="582.083" cy="56.276" r="2.5" fill="#2563eb" fill-opacity="0.55" /><circle cx="593.084" cy="78.108" r="2.5" fill="#2563eb" fill-opacity="0.55" /><circle cx="610.939" cy="79.36" r="2.5" fill="#2563eb" fill-opacity="0.55" /><circle cx="631.499" cy="45.865" r="2.5" fill="#2563eb" fill-opacity="0.55" /><circle cx="648.452" cy="59.191" r="2.5" fill="#2563eb" fill-opacity="0.55" /><circle cx="674.783" cy="60.072" r="2.5" fill="#2563eb" fill-opacity="0.55" /><circle cx="695.796" cy="45.612" r="2.5" fill="#2563eb" fill-opacity="0.55" /><circle cx="669.012" cy="45.392" r="2.5" fill="#2563eb" fill-opacity="0.55" /><circle cx="651.698" cy="60.128" r="2.5" fill="#2563eb" fill-opacity="0.55" /><circle cx="651.095" cy="57.287" r="2.5" fill="#2563eb" fill-opacity="0.55" /><circle cx="641.959" cy="63.104" r="2.5" fill="#2563eb" fill-opacity="0.55" /><circle cx="648.452" cy="54.248" r="2.5" fill="#2563eb" fill-opacity="0.55" /><circle cx="704" cy="40" r="2.5" fill="#2563eb" fill-opacity="0.55" /><circle cx="681.997" cy="50.787" r="2.5" fill="#2563eb" fill-opacity="0.55" /><circle cx="588.936" cy="78.371" r="2.5" fill="#2563eb" fill-opacity="0.55" /><circle cx="589.658" cy="86.663" r="2.5" fill="#2563eb" fill-opacity="0.55" /><circle cx="652.6" cy="69.771" r="2.5" fill="#2563eb" fill-opacity="0.55" /><circle cx="628.072" cy="65.427" r="2.5" fill="#2563eb" fill-opacity="0.55" /><circle cx="615.989" cy="70.119" r="2.5" fill="#2563eb" fill-opacity="0.55" /><circle cx="608.775" cy="60.625" r="2.5" fill="#2563eb" fill-opacity="0.55" /><circle cx="563.564" cy="97.253" r="2.5" fill="#2563eb" fill-opacity="0.55" /><circle cx="563.326" cy="87.102" r="2.5" fill="#2563eb" fill-opacity="0.55" /><circle cx="508.32" cy="110.704" r="2.5" fill="#2563eb" fill-opacity="0.55" /><circle cx="451.148" cy="118.007" r="2.5" fill="#2563eb" fill-opacity="0.55" /><circle cx="472.069" cy="107.941" r="2.5" fill="#2563eb" fill-opacity="0.55" /><circle cx="498.761" cy="86.607" r="2.5" fill="#2563eb" fill-opacity="0.55" /><circle cx="481.628" cy="112.028" r="2.5" fill="#2563eb" fill-opacity="0.55" /><circle cx="509.943" cy="103.42" r="2.5" fill="#2563eb" fill-opacity="0.55" /><circle cx="496.236" cy="107.622" r="2.5" fill="#2563eb" fill-opacity="0.55" /><circle cx="472.069" cy="114.96" r="2.5" fill="#2563eb" fill-opacity="0.55" /><circle cx="467.019" cy="116.611" r="2.5" fill="#2563eb" fill-opacity="0.55" /><circle cx="401.552" cy="123.681" r="2.5" fill="#2563eb" fill-opacity="0.55" /><circle cx="313.541" cy="164.716" r="2.5" fill="#2563eb" fill-opacity="0.55" /><circle cx="313.541" cy="159.375" r="2.5" fill="#2563eb" fill-opacity="0.55" /></g></svg>