<svg xmlns="http://www.w3.org/2000/svg" viewBox="0 0 720 280" width="720" height="280"><rect x="0" y="0" width="720" height="280" fill="#ffffff" /><text x="56" y="24" font-size="14" font-family="system-ui, -apple-system, Segoe UI, Roboto, sans-serif" fill="#1f2933" font-weight="600">Trade PnL Distribution (24h)</text><g><line x1="56" y1="40" x2="56" y2="248" stroke="#9aa5b1" stroke-width="1" /><g><line x1="56" y1="248" x2="704" y2="248" stroke="#e4e7eb" stroke-width="1" stroke-dasharray="2 2" /><line x1="52" y1="248" x2="56" y2="248" stroke="#9aa5b1" stroke-width="1" /><text x="48" y="252" text-anchor="end" font-size="11" font-family="system-ui, -apple-system, Segoe UI, Roboto, sans-serif" fill="#1f2933">0</text></g><g><line x1="56" y1="194.939" x2="704" y2="194.939" stroke="#e4e7eb" stroke-width="1" stroke-dasharray="2 2" /><line x1="52" y1="194.939" x2="56" y2="194.939" stroke="#9aa5b1" stroke-width="1" /><text x="48" y="198.939" text-anchor="end" font-size="11" font-family="system-ui, -apple-system, Segoe UI, Roboto, sans-serif" fill="#1f2933">50</text></g><g><line x1="56" y1="141.878" x2="704" y2="141.878" stroke="#e4e7eb" stroke-width="1" stroke-dasharray="2 2" /><line x1="52" y1="141.878" x2="56" y2="141.878" stroke="#9aa5b1" stroke-width="1" /><text x="48" y="145.878" text-anchor="end" font-size="11" font-family="system-ui, -apple-system, Segoe UI, Roboto, sans-serif" fill="#1f2933">100</text></g><g><line x1="56" y1="88.816" x2="704" y2="88.816" stroke="#e4e7eb" stroke-width="1" stroke-dasharray="2 2" /><line x1="52" y1="88.816" x2="56" y2="88.816" stroke="#9aa5b1" stroke-width="1" /><text x="48" y="92.816" text-anchor="end" font-size="11" font-family="system-ui, -apple-system, Segoe UI, Roboto, sans-serif" fill="#1f2933">150</text></g></g><g><line x1="56" y1="248" x2="704" y2="248" stroke="#9aa5b1" stroke-width="1" /><g><line x1="174.289" y1="248" x2="174.289" y2="252" stroke="#9aa5b1" stroke-width="1" /><text x="174.289" y="264" text-anchor="middle" font-size="11" font-family="system-ui, -apple-system, Segoe UI, Roboto, sans-serif" fill="#1f2933">-20</text></g><g><line x1="358.843" y1="248" x2="358.843" y2="252" stroke="#9aa5b1" stroke-width="1" /><text x="358.843" y="264" text-anchor="middle" font-size="11" font-family="system-ui, -apple-system, Segoe UI, Roboto, sans-serif" fill="#1f2933">-10</text></g><g><line x1="543.397" y1="248" x2="543.397" y2="252" stroke="#9aa5b1" stroke-width="1" /><text x="543.397" y="264" text-anchor="middle" font-size="11" font-family="system-ui, -apple-system, Segoe UI, Roboto, sans-serif" fill="#1f2933">0</text></g></g><g><rect x="56" y="246.939" width="20.6" height="1.061" fill="#2563eb" opacity="0.85" /><rect x="77.6" y="248" width="20.6" height="0" fill="#2563eb" opacity="0.85" /><rect x="99.2" y="248" width="20.6" height="0" fill="#2563eb" opacity="0.85" /><rect x="120.8" y="248" width="20.6" height="0" fill="#2563eb" opacity="0.85" /><rect x="142.4" y="248" width="20.6" height="0" fill="#2563eb" opacity="0.85" /><rect x="164" y="248" width="20.6" height="0" fill="#2563eb" opacity="0.85" /><rect x="185.6" y="248" width="20.6" height="0" fill="#2563eb" opacity="0.85" /><rect x="207.2" y="248" width="20.6" height="0" fill="#2563eb" opacity="0.85" /><rect x="228.8" y="248" width="20.6" height="0" fill="#2563eb" opacity="0.85" /><rect x="250.4" y="248" width="20.6" height="0" fill="#2563eb" opacity="0.85" /><rect x="272" y="248" width="20.6" height="0" fill="#2563eb" opacity="0.85" /><rect x="293.6" y="248" width="20.6" height="0" fill="#2563eb" opacity="0.85" /><rect x="315.2" y="248" width="20.6" height="0" fill="#2563eb" opacity="0.85" /><rect x="336.8" y="248" width="20.6" height="0" fill="#2563eb" opacity="0.85" /><rect x="358.4" y="248" width="20.6" height="0" fill="#2563eb" opacity="0.85" /><rect x="380" y="248" width="20.6" height="0" fill="#2563eb" opacity="0.85" /><rect x="401.6" y="248" width="20.6" height="0" fill="#2563eb" opacity="0.85" /><rect x="423.2" y="248" width="20.6" height="0" fill="#2563eb" opacity="0.85" /><rect x="444.8" y="248" width="20.6" height="0" fill="#2563eb" opacity="0.85" /><rect x="466.4" y="248" width="20.6" height="0" fill="#2563eb" opacity="0.85" /><rect x="488" y="248" width="20.6" height="0" fill="#2563eb" opacity="0.85" /><rect x="509.6" y="248" width="20.6" height="0" fill="#2563eb" opacity="0.85" /><rect x="531.2" y="40" width="20.6" height="208" fill="#2563eb" opacity="0.85" /><rect x="552.8" y="246.939" width="20.6" height="1.061" fill="#2563eb" opacity="0.85" /><rect x="574.4" y="246.939" width="20.6" height="1.061" fill="#2563eb" opacity="0.85" /><rect x="596" y="248" width="20.6" height="0" fill="#2563eb" opacity="0.85" /><rect x="617.6" y="248" width="20.6" height="0" fill="#2563eb" opacity="0.85" /><rect x="639.2" y="248" width="20.6" height="0" fill="#2563eb" opacity="0.85" /><rect x="660.8" y="248" width="20.6" height="0" fill="#2563eb" opacity="0.85" /><rect x="682.4" y="246.939" width="20.6" height="1.061" fill="#2563eb" opacity="0.85" /></g></svg>